<?xml version="1.0" encoding="UTF-8" standalone="no"?>
<!-- Creator: CorelDRAW -->
<svg
   xmlns:dc="http://purl.org/dc/elements/1.1/"
   xmlns:cc="http://web.resource.org/cc/"
   xmlns:rdf="http://www.w3.org/1999/02/22-rdf-syntax-ns#"
   xmlns:svg="http://www.w3.org/2000/svg"
   xmlns="http://www.w3.org/2000/svg"
   xmlns:sodipodi="http://sodipodi.sourceforge.net/DTD/sodipodi-0.dtd"
   xmlns:inkscape="http://www.inkscape.org/namespaces/inkscape"
   xml:space="preserve"
   width="233.4mm"
   height="264.9mm"
   style="shape-rendering:geometricPrecision; text-rendering:geometricPrecision; image-rendering:optimizeQuality; fill-rule:evenodd; clip-rule:evenodd"
   viewBox="0 0 233.4 264.9"
   sodipodi:version="0.32"
   inkscape:version="0.45.1"
   version="1.0"
   sodipodi:docbase="C:\Documents and Settings\Administrador\Mis documentos\Mis imágenes"
   sodipodi:docname="Escudo de Itagüí 2.svg"
   inkscape:output_extension="org.inkscape.output.svg.inkscape"
   id="svg2"><metadata
   id="metadata276"><rdf:RDF><cc:Work
       rdf:about=""><dc:format>image/svg+xml</dc:format><dc:type
         rdf:resource="http://purl.org/dc/dcmitype/StillImage" /></cc:Work></rdf:RDF></metadata><sodipodi:namedview
   inkscape:window-height="721"
   inkscape:window-width="1024"
   inkscape:pageshadow="2"
   inkscape:pageopacity="0.0"
   guidetolerance="10.0"
   gridtolerance="10.0"
   objecttolerance="10.0"
   borderopacity="1.0"
   bordercolor="#666666"
   pagecolor="#ffffff"
   id="namedview274"
   inkscape:zoom="0.40271802"
   inkscape:cx="413.50394"
   inkscape:cy="469.311"
   inkscape:window-x="-4"
   inkscape:window-y="-4"
   inkscape:current-layer="svg2" />
 <defs
   id="defs4">
  <style
   type="text/css"
   id="style6">
   
    .str1 {stroke:black;stroke-width:0.0762}
    .str0 {stroke:black;stroke-width:0.18}
    .str4 {stroke:black;stroke-width:0.25}
    .str5 {stroke:black;stroke-width:0.25;stroke-linecap:round;stroke-linejoin:round}
    .str8 {stroke:black;stroke-width:0.3}
    .str3 {stroke:black;stroke-width:0.3;stroke-linecap:round;stroke-linejoin:round}
    .str7 {stroke:black;stroke-width:0.35}
    .str2 {stroke:black;stroke-width:0.5}
    .str6 {stroke:black;stroke-width:0.7}
    .str10 {stroke:black;stroke-width:1;stroke-linecap:square}
    .str9 {stroke:black;stroke-width:1.0614;stroke-linecap:round;stroke-linejoin:round}
    .fil8 {fill:none}
    .fil4 {fill:black}
    .fil1 {fill:#0071BC}
    .fil3 {fill:#008F4C}
    .fil9 {fill:#A3A3A3}
    .fil7 {fill:#CC6633}
    .fil6 {fill:#D17E54}
    .fil0 {fill:#E3E4E5}
    .fil5 {fill:#EAC102}
    .fil2 {fill:#ED1C24}
    .fil11 {fill:white}
    .fil10 {fill:black;fill-rule:nonzero}
    .fil12 {fill:#E3E4E5;fill-rule:nonzero}
   
  </style>
 </defs>
 <g
   id="fondo">
  <metadata
   id="CorelCorpID_0Corel-Layer" />
  <sodipodi:namedview
   id="base"
   pagecolor="#ffffff"
   bordercolor="#666666"
   borderopacity="1.0"
   gridtolerance="10000"
   guidetolerance="10"
   objecttolerance="10"
   inkscape:pageopacity="0.0"
   inkscape:pageshadow="2"
   inkscape:zoom="0.34716322"
   inkscape:cx="151.39335"
   inkscape:cy="693.47191"
   inkscape:document-units="px"
   inkscape:current-layer="layer1"
   inkscape:window-width="1280"
   inkscape:window-height="753"
   inkscape:window-x="-4"
   inkscape:window-y="-4"
   showguides="true"
   showgrid="false"
   inkscape:guide-bbox="true"
   height="975px"
   width="549.99969px" />
  <g
   id="layer4"
   inkscape:groupmode="layer"
   inkscape:label="Piezas">
  </g>
  <g
   id="layer5"
   inkscape:groupmode="layer"
   inkscape:label="Muebles">
  </g>
  <g
   id="layer2"
   inkscape:groupmode="layer"
   inkscape:label="Ornamento">
  </g>
  <g
   id="layer6"
   inkscape:groupmode="layer"
   inkscape:label="Borde 3px">
  </g>
  <polygon
   class="fil0"
   points="116.647,156.946 116.647,79.8877 50.6802,79.8877 50.6803,156.946 "
   id="polygon15" />
  <path
   class="fil1"
   d="M182.614 156.946l-65.967 0 -65.967 0 -0.0001 15.3057c0,36.4327 29.5345,65.9671 65.9671,65.9671 36.4323,0.0002 65.9669,-29.5342 65.967,-65.9671l0 -15.3057z"
   id="path17" />
  <polygon
   class="fil2"
   points="116.647,156.946 182.614,156.946 182.614,79.8877 116.647,79.8877 "
   id="polygon19" />
  <path
   class="fil3"
   d="M146.683 184.176l-4.1929 -0.127 -3.3034 -1.3976 -5.2093 -2.9223 -5.3363 -4.0658 -5.5904 -4.3199 -1.6054 -1.2076 -1.5434 -0.9314 -1.469 -0.441 -1.3339 -0.109 -1.5434 0.3353 -1.6239 0.7152 -2.189 1.3844 -5.4634 4.7011 -3.9882 2.1914 -2.2375 -0.0315 -4.4469 2.4141 -6.4799 3.8116 -6.6068 0.6353 -4.8282 1.6517 -5.8445 3.0494 -4.3199 -0.7624 -1.7788 1.0165 -3.8116 3.4305 -6.5418 3.5931c1.684,4.1999 3.7875,8.1864 6.2587,11.9076l109.987 0c4.4953,-6.7694 7.7741,-14.4165 9.5244,-22.6295l-3.3534 0.6489 -3.8117 0.6353 -3.5575 1.1435 -5.0823 0.7624 -5.7175 0 -4.3198 -0.7624c-1.0525,-0.2337 -1.0535,-0.2992 -2.16,-0.8894l-2.9223 -2.6681 -3.5575 -0.7624z"
   id="path21" />
  <polygon
   class="fil4"
   points="132.679,21.3663 134.63,25.1059 135.113,29.5529 135.092,31.3508 136.484,33.1053 136.992,33.7715 137.426,34.4126 137.577,35.0374 137.62,35.7098 137.493,36.7729 137.339,37.4767 137.052,38.3661 136.688,39.111 136.171,39.5056 135.506,39.6832 134.305,39.8833 134.135,40.6658 133.328,43.0946 132.383,45.4159 131.532,46.7829 130.468,48.1018 130.458,49.1693 136.823,48.3201 141.637,47.9286 141.723,43.8695 141.598,40.2249 141.276,36.6907 140.897,33.8396 140.158,30.1463 139.183,25.1059 138.37,19.903 137.394,14.7 131.683,14.7 131.866,18.6022 "
   id="polygon23" />
  <polygon
   class="fil4"
   points="98.7024,25.1059 100.654,21.3663 101.467,18.6022 101.649,14.7 95.9383,14.7 94.9628,19.903 94.1498,25.1059 93.1742,30.1463 92.4359,33.8396 92.0568,36.6907 91.7343,40.2249 91.6097,43.8695 91.6954,47.9286 96.5092,48.3201 102.875,49.1693 102.864,48.1018 101.801,46.7829 100.95,45.4159 100.005,43.0946 99.1977,40.6658 99.028,39.8833 97.8262,39.6832 97.1617,39.5056 96.6448,39.111 96.2807,38.3661 95.9931,37.4767 95.8398,36.7729 95.713,35.7098 95.7554,35.0374 95.9065,34.4126 96.3408,33.7715 96.8485,33.1053 98.2407,31.3508 98.2199,29.5529 "
   id="polygon25" />
  <polygon
   class="fil4"
   points="97.7313,9.2063 116.666,9.2063 135.601,9.2063 134.216,7.6541 132.179,5.8767 130.192,4.5309 128.401,3.5774 126.42,2.7918 124.481,2.2731 122.254,1.8953 119.874,1.6691 116.666,1.6073 113.459,1.6691 111.079,1.8953 108.851,2.2731 106.913,2.7918 104.932,3.5774 103.141,4.5309 101.153,5.8767 99.1164,7.6541 "
   id="polygon27" />
  <polygon
   class="fil5"
   points="116.666,14.7 131.683,14.7 137.394,14.7 137.394,9.2063 135.601,9.2063 116.666,9.2063 97.7313,9.2063 95.9383,9.2063 95.9383,14.7 101.649,14.7 "
   id="polygon29" />
  <polygon
   class="fil6"
   points="116.666,55.8541 113.946,55.8643 112.727,55.6854 111.914,55.4357 111.276,54.9899 110.034,53.9035 107.264,51.5132 104.792,49.6937 102.864,48.1018 102.875,49.1693 102.946,56.5999 102.946,58.4764 99.7681,59.3782 96.9978,60.3586 94.1463,61.5842 91.4573,63.1368 88.687,64.6076 85.9985,65.0981 82.7391,65.5063 80.2949,65.9968 78.0133,66.3237 75.8135,66.0785 73.4506,66.0785 70.8433,66.4872 68.2361,67.4676 66.1993,68.775 63.9177,70.818 62.1252,73.678 61.2291,76.5379 60.9031,79.8879 107.227,79.8879 114.884,79.8879 126.105,79.8879 172.429,79.8879 172.103,76.5379 171.207,73.678 169.414,70.818 167.133,68.775 165.096,67.4676 162.489,66.4872 159.882,66.0785 157.519,66.0785 155.319,66.3237 153.037,65.9968 150.593,65.5063 147.334,65.0981 144.645,64.6076 141.875,63.1368 139.186,61.5842 136.334,60.3586 133.564,59.3782 130.386,58.4764 130.386,56.5999 130.458,49.1693 130.468,48.1018 128.54,49.6937 126.068,51.5132 123.298,53.9035 122.057,54.9899 121.419,55.4357 120.605,55.6854 119.387,55.8643 "
   id="polygon31" />
  <polygon
   class="fil7"
   points="118.274,45.4849 118.613,45.3664 118.926,45.199 120.061,44.504 121.248,43.8099 122.239,43.1988 121.009,42.4482 120.268,42.0488 119.357,41.6158 118.572,41.3197 117.699,41.1178 116.666,41.0317 115.633,41.1178 114.76,41.3197 113.975,41.6158 113.065,42.0488 112.323,42.4482 111.094,43.1988 112.085,43.8099 113.271,44.504 114.407,45.199 114.72,45.3664 115.059,45.4849 115.476,45.5352 115.996,45.5666 116.666,45.6002 117.337,45.5666 117.857,45.5352 "
   id="polygon33" />
  <polygon
   class="fil6"
   points="98.5866,37.8465 98.261,33.1486 98.2407,31.3508 96.8485,33.1053 96.3408,33.7715 95.9065,34.4126 95.7554,35.0374 95.713,35.7098 95.8398,36.7729 95.9931,37.4767 96.2807,38.3661 96.6448,39.111 97.1617,39.5056 97.8262,39.6832 99.028,39.8833 "
   id="polygon35" />
  <polygon
   class="fil6"
   points="135.072,33.1486 134.746,37.8465 134.305,39.8833 135.506,39.6832 136.171,39.5056 136.688,39.111 137.052,38.3661 137.339,37.4767 137.493,36.7729 137.62,35.7098 137.577,35.0374 137.426,34.4126 136.992,33.7715 136.484,33.1053 135.092,31.3508 "
   id="polygon37" />
  <path
   class="fil8 str0"
   d="M97.6022 38.4372c-0.5951,-0.976 -0.9525,-2.1879 -0.9525,-3.2889 0,-0.3871 0.0141,-0.7273 0.0141,-1.1161"
   id="path39" />
  <path
   class="fil8 str1"
   d="M135.705 38.4403c0.5951,-0.976 0.9526,-2.1879 0.9526,-3.2889 0,-0.3871 -0.0142,-0.7273 -0.0142,-1.1161"
   id="path41" />
  <path
   class="fil6"
   d="M98.2199 29.5529l0.0208 1.7979 0.0203 1.7978 0.3256 4.6979 0.4414 2.0368 0.1697 0.7825 0.8072 2.4288 0.9446 2.3213 0.851 1.367 1.0639 1.3189 1.9277 1.5919 2.4721 1.8195 2.7702 2.3903 1.2411 1.0864 0.638 0.4458 0.8139 0.2497 1.2181 0.1789 2.7208 -0.0102 2.7208 0.0102 1.2181 -0.1789 0.8138 -0.2497 0.638 -0.4458 1.2411 -1.0864 2.7703 -2.3903 2.472 -1.8195 1.9277 -1.5919 1.0639 -1.3189 0.851 -1.367 0.9446 -2.3213 0.8073 -2.4288 0.1696 -0.7825 0.4414 -2.0368 0.3256 -4.6979 0.0204 -1.7978 0.0207 -1.7979 -0.4825 -4.447 -1.9511 -3.7396 -0.8129 -2.7641 -0.183 -3.9022 -15.0168 0 -15.0169 0 -0.1829 3.9022 -0.813 2.7641 -1.9511 3.7396 -0.4825 4.447zm31.6672 -0.6559c-2.5781,0.965 -5.266,1.1833 -8.174,-0.0946 3.6924,-2.9356 5.8884,-1.7708 8.174,0.0946zm-18.2677 -0.0946c-2.908,1.2779 -5.5959,1.0596 -8.174,0.0946 2.2856,-1.8654 4.4816,-3.0302 8.174,-0.0946zm9.39 13.6458l1.2297 0.7506 -0.9911 0.6111 -1.1867 0.6941 -1.1355 0.695 -0.3133 0.1674 -0.3384 0.1185 -0.4171 0.0503 -0.52 0.0314 -0.6707 0.0336 -0.6707 -0.0336 -0.5201 -0.0314 -0.417 -0.0503 -0.3385 -0.1185 -0.3132 -0.1674 -1.1355 -0.695 -1.1868 -0.6941 -0.991 -0.6111 1.2296 -0.7506 0.7414 -0.3994 0.9106 -0.433 0.7851 -0.2961 0.8731 -0.2019 1.033 -0.0861 1.033 0.0861 0.873 0.2019 0.7851 0.2961 0.9107 0.433 0.7413 0.3994z"
   id="path43" />
  <path
   class="fil0"
   d="M129.887 28.897c-2.2856,-1.8654 -4.4816,-3.0302 -8.174,-0.0946 2.908,1.2779 5.5959,1.0596 8.174,0.0946zm-5.0618 -0.5521c0,-0.4965 0.4032,-0.8991 0.9004,-0.8991 0.4972,0 0.9004,0.4026 0.9004,0.8991 0,0.4965 -0.4032,0.8991 -0.9004,0.8991 -0.4972,0 -0.9004,-0.4026 -0.9004,-0.8991z"
   id="path45" />
  <path
   class="fil0"
   d="M108.507 28.3449c0,0.4965 -0.4032,0.8991 -0.9004,0.8991 -0.4972,0 -0.9004,-0.4026 -0.9004,-0.8991 0,-0.4965 0.4032,-0.8991 0.9004,-0.8991 0.4972,0 0.9004,0.4026 0.9004,0.8991zm3.1122 0.4575c-3.6924,-2.9356 -5.8884,-1.7708 -8.174,0.0946 2.5781,0.965 5.266,1.1833 8.174,-0.0946z"
   id="path47" />
 </g>
 <g
   id="Elementos">
  <metadata
   id="CorelCorpID_1Corel-Layer" />
  <polyline
   class="fil8 str2"
   points="60.9031,79.8879 61.2291,76.5379 62.1252,73.678 63.9177,70.818 66.1993,68.775 68.2361,67.4676 70.8433,66.4872 73.4506,66.0785 75.8135,66.0785 78.0133,66.3237 "
   id="polyline51" />
  <g
   id="_68923112">
   <polygon
   id="_68925712"
   class="fil0"
   points="116.647,254.595 62.7973,254.595 52.0975,254.595 51.6017,254.648 51.1998,254.76 50.6964,255.003 50.3525,255.258 50.0694,255.566 49.862,255.933 49.7714,256.382 49.7143,250.607 49.6499,244.082 49.6718,243.752 49.7228,243.349 49.8917,242.941 50.0976,242.633 50.4193,242.371 50.7276,242.17 51.085,242.012 51.5548,241.919 52.0975,241.875 116.647,241.875 181.197,241.875 181.74,241.919 182.21,242.012 182.567,242.17 182.875,242.371 183.197,242.633 183.403,242.941 183.572,243.349 183.623,243.752 183.645,244.082 183.58,250.607 183.523,256.382 183.433,255.933 183.225,255.566 182.942,255.258 182.598,255.003 182.095,254.76 181.693,254.648 181.197,254.595 170.497,254.595 " />
   <polygon
   id="_68925328"
   class="fil0"
   points="183.523,256.382 183.58,250.607 189.636,250.92 190.088,250.945 196.515,251.339 203.784,251.862 191.485,257.717 201.383,264.638 194.57,264.195 188.078,263.868 178.471,263.41 173.442,263.152 172.809,263.115 172.37,263.068 171.982,263.004 171.56,262.903 171.14,262.757 170.799,262.587 170.536,262.404 170.313,262.185 170.103,261.799 170.099,261.446 170.302,260.969 170.562,260.685 170.973,260.389 171.463,260.137 172.047,259.911 172.598,259.742 173.18,259.597 173.662,259.497 180.268,258.383 180.799,258.297 181.334,258.178 181.836,258.03 182.261,257.863 182.687,257.637 182.999,257.409 183.265,257.127 183.455,256.782 " />
   <polygon
   id="_68924872"
   class="fil0"
   points="170.099,261.447 170.497,254.595 181.197,254.595 181.693,254.648 182.095,254.76 182.598,255.003 182.942,255.258 183.225,255.566 183.433,255.933 183.523,256.382 183.455,256.782 183.265,257.127 182.999,257.409 182.687,257.637 182.261,257.863 181.836,258.03 181.334,258.178 180.799,258.297 180.268,258.383 173.662,259.497 173.18,259.597 172.598,259.742 172.047,259.911 171.463,260.137 170.973,260.389 170.562,260.685 170.302,260.969 " />
   <polygon
   id="_68923792"
   class="fil0"
   points="53.0266,258.383 59.6323,259.497 60.1145,259.597 60.6967,259.742 61.2481,259.911 61.8321,260.137 62.322,260.389 62.733,260.685 62.9928,260.969 63.1959,261.446 63.1914,261.799 62.9821,262.185 62.7587,262.404 62.4961,262.587 62.1548,262.757 61.7344,262.903 61.3126,263.004 60.9243,263.068 60.4861,263.115 59.8522,263.152 54.8232,263.41 45.2166,263.868 38.7244,264.195 31.9118,264.638 41.8094,257.717 29.5106,251.862 36.7797,251.339 43.2062,250.945 43.6587,250.92 49.7143,250.607 49.7714,256.382 49.8401,256.782 50.0294,257.127 50.2954,257.409 50.6078,257.637 51.0341,257.863 51.459,258.03 51.9603,258.178 52.4955,258.297 " />
   <polygon
   id="_68923288"
   class="fil0"
   points="62.7973,254.595 63.1959,261.446 62.9928,260.969 62.733,260.685 62.322,260.389 61.8321,260.137 61.2481,259.911 60.6967,259.742 60.1145,259.597 59.6323,259.497 53.0266,258.383 52.4955,258.297 51.9603,258.178 51.459,258.03 51.0341,257.863 50.6078,257.637 50.2954,257.409 50.0294,257.127 49.8401,256.782 49.7714,256.382 49.862,255.933 50.0694,255.566 50.3525,255.258 50.6964,255.003 51.1998,254.76 51.6017,254.648 52.0975,254.595 " />
  </g>
  <g
   id="_69188784">
   <g
   id="g60">
    <line
   id="_68922464"
   class="fil8 str3"
   x1="170.09"
   y1="261.604"
   x2="170.497"
   y2="254.595" />
    <polyline
   id="_68922016"
   class="fil8 str3"
   points="116.647,241.875 181.197,241.875 181.74,241.919 182.21,242.012 182.567,242.17 182.875,242.371 183.197,242.633 183.403,242.941 183.572,243.349 183.623,243.752 183.645,244.082 183.523,256.424 " />
    <polyline
   id="_68921584"
   class="fil8 str3"
   points="116.647,254.595 181.197,254.595 181.693,254.648 182.095,254.76 182.598,255.003 182.942,255.258 183.225,255.566 183.433,255.933 183.523,256.382 183.455,256.782 183.265,257.127 182.999,257.409 182.687,257.637 182.261,257.863 181.836,258.03 181.334,258.178 180.799,258.297 180.268,258.383 173.662,259.497 173.18,259.597 172.598,259.742 172.047,259.911 171.463,260.137 170.973,260.389 170.562,260.685 170.302,260.969 170.099,261.446 170.103,261.799 170.313,262.185 170.536,262.404 170.799,262.587 171.14,262.757 171.56,262.903 171.982,263.004 172.37,263.068 172.809,263.115 173.442,263.152 178.471,263.41 188.078,263.868 194.57,264.195 201.383,264.638 191.485,257.717 203.784,251.862 196.515,251.339 190.088,250.945 189.636,250.92 183.534,250.604 " />
   </g>
   <g
   id="g65">
    <line
   id="_68920368"
   class="fil8 str3"
   x1="63.205"
   y1="261.604"
   x2="62.7973"
   y2="254.595" />
    <polyline
   id="_68919864"
   class="fil8 str3"
   points="116.647,241.875 52.0975,241.875 51.5548,241.919 51.085,242.012 50.7276,242.17 50.4193,242.371 50.0976,242.633 49.8917,242.941 49.7228,243.349 49.6718,243.752 49.6499,244.082 49.7717,256.424 " />
    <polyline
   id="_69189216"
   class="fil8 str3"
   points="116.647,254.595 52.0975,254.595 51.6017,254.648 51.1998,254.76 50.6964,255.003 50.3525,255.258 50.0694,255.566 49.862,255.933 49.7714,256.382 49.8401,256.782 50.0294,257.127 50.2954,257.409 50.6078,257.637 51.0341,257.863 51.459,258.03 51.9603,258.178 52.4955,258.297 53.0266,258.383 59.6323,259.497 60.1145,259.597 60.6967,259.742 61.2481,259.911 61.8321,260.137 62.322,260.389 62.733,260.685 62.9928,260.969 63.1959,261.446 63.1914,261.799 62.9821,262.185 62.7587,262.404 62.4961,262.587 62.1548,262.757 61.7344,262.903 61.3126,263.004 60.9243,263.068 60.4861,263.115 59.8522,263.152 54.8232,263.41 45.2166,263.868 38.7244,264.195 31.9118,264.638 41.8094,257.717 29.5106,251.862 36.7797,251.339 43.2062,250.945 43.6587,250.92 49.7603,250.604 " />
   </g>
  </g>
  <g
   id="_68800968">
   <polygon
   id="path2170"
   class="fil9 str4"
   points="80.1523,94.0036 78.0696,148.617 84.7187,148.617 85.201,148.617 91.8501,148.617 89.7674,94.0036 85.201,94.0036 84.7187,94.0036 " />
   <path
   id="path2175"
   class="fil8 str4"
   d="M78.675 148.598l1.8828 -54.5746m-0.5608 54.5746l1.4422 -54.5746m0.0801 54.5746l1.0015 -54.5746m0.9214 54.5746l0.4006 -54.5746m7.251 54.5746l-1.8828 -54.5746m0.5608 54.5746l-1.4422 -54.5746m-0.0801 54.5746l-1.0015 -54.5746m-0.9214 54.5746l-0.4006 -54.5746"
   sodipodi:nodetypes="cccccccccccccccc" />
   <polygon
   id="path2195"
   class="fil9 str5"
   points="79.7491,96.7241 90.1334,96.7241 90.0901,96.1792 79.7729,96.1792 "
   sodipodi:nodetypes="ccccc" />
   <path
   id="_68726920"
   class="fil9 str5"
   d="M80 94.2487l9.9222 0c0.0575,0.0001 0.1042,0.1306 0.1042,0.2916l-0.0001 -0.0002c0.0001,0.1612 -0.0466,0.2917 -0.1041,0.2917l-9.9222 -0.0002c-0.0574,0.0002 -0.104,-0.1303 -0.104,-0.2913l-0.0001 -0.0002c0.0001,-0.1608 0.0467,-0.2913 0.1042,-0.2913z" />
   <path
   id="_68728912"
   class="fil9 str5"
   d="M80 93.6306l9.9222 0c0.0575,0 0.1042,0.1304 0.1042,0.2914l-0.0001 0c0.0001,0.1611 -0.0466,0.2915 -0.1041,0.2915l-9.9222 -0.0001c-0.0574,0.0001 -0.104,-0.1303 -0.104,-0.2914l-0.0001 0c0.0001,-0.161 0.0467,-0.2914 0.1042,-0.2914z" />
   <path
   id="path4143"
   class="fil9 str4"
   d="M79.1826 91.6074c0,0 -0.295,0.1353 -0.0438,0.8143 0.2259,0.6108 1.0273,1.2246 1.0273,1.2246l4.795 -0.0157 4.7918 0.0157c0,0 0.8014,-0.6138 1.0273,-1.2246 0.2512,-0.679 -0.0407,-0.8143 -0.0407,-0.8143l-5.4809 0 -0.595 0 -5.481 0z" />
   <rect
   id="rect4154"
   class="fil9 str4"
   x="78.8463"
   y="88.9629"
   width="12.2271"
   height="2.6058" />
  </g>
  <line
   class="fil8 str4"
   x1="61.6539"
   y1="208.698"
   x2="171.641"
   y2="208.698"
   id="line78" />
  <g
   id="_64037968">
   <rect
   id="rect3123"
   class="fil0 str5"
   x="116.651"
   y="131.532"
   width="65.9637"
   height="10.5139" />
   <polygon
   id="rect7649"
   class="fil0 str5"
   points="156.663,146.439 159.813,146.439 154.983,127.139 151.832,127.139 " />
   <polygon
   id="rect7649_0"
   class="fil0 str5"
   points="148.804,146.439 151.955,146.439 147.124,127.139 143.973,127.139 " />
   <polygon
   id="rect7649_1"
   class="fil0 str5"
   points="140.945,146.439 144.096,146.439 139.265,127.139 136.114,127.139 " />
   <polygon
   id="rect7649_2"
   class="fil0 str5"
   points="133.086,146.439 136.237,146.439 131.406,127.139 128.255,127.139 " />
   <polygon
   id="rect7649_3"
   class="fil0 str5"
   points="125.227,146.439 128.378,146.439 123.547,127.139 120.396,127.139 " />
   <polygon
   id="rect7649_4"
   class="fil0 str5"
   points="116.647,143.559 117.368,146.439 120.519,146.439 116.653,130.995 " />
   <polygon
   id="rect7649_5"
   class="fil0 str5"
   points="182.61,143.323 178.559,127.139 175.409,127.139 180.239,146.439 182.614,146.439 " />
   <polygon
   id="rect7649_6"
   class="fil0 str5"
   points="172.381,146.439 175.531,146.439 170.701,127.139 167.55,127.139 " />
   <polygon
   id="rect7649_7"
   class="fil0 str5"
   points="164.522,146.439 167.672,146.439 162.842,127.139 159.691,127.139 " />
  </g>
  <path
   class="fil8 str4"
   d="M55.3952 196.79l6.5418 -3.5931 3.8116 -3.4305 1.7788 -1.0165 4.3199 0.7624 5.8445 -3.0494 4.8282 -1.6517 6.6068 -0.6353 6.4799 -3.8116 4.4469 -2.4141 2.2375 0.0315 3.9882 -2.1914 5.4634 -4.7011 2.189 -1.3844 1.6239 -0.7152 1.5434 -0.3353 1.3339 0.109 1.469 0.441 1.5434 0.9314 1.6054 1.2076 5.5904 4.3199 5.3363 4.0658 5.2093 2.9223 3.3034 1.3976 4.1929 0.127 3.5575 0.7624 2.9223 2.6681c1.1065,0.5902 1.1075,0.6557 2.16,0.8894l4.3198 0.7624 5.7175 0 5.0823 -0.7624 3.5575 -1.1435 3.8117 -0.6353 3.3534 -0.6489"
   id="path91" />
  <polyline
   class="fil8 str4"
   points="66.0027,200.567 72.6096,196.501 79.4706,191.673 85.8234,188.623 91.9221,186.336 97.0043,183.287 100.233,180.17 "
   id="polyline93" />
  <path
   class="fil8 str4"
   d="M113.161 183.235c2.7873,1.5006 4.0516,4.1037 6.9679,5.3882 2.2293,0.9821 4.0213,3.1194 6.6069,4.0658 2.3007,0.8423 2.5245,4.4428 6.0986,5.3363"
   id="path95" />
  <path
   class="fil8 str4"
   d="M106.152 188.369c2.0177,1.8736 4.3727,3.8467 7.1151,4.574 3.5551,0.9427 4.9105,3.9214 7.1151,6.861"
   id="path97" />
  <path
   class="fil8 str4"
   d="M95.9878 190.656c2.3322,1.4576 4.5531,3.3769 6.6069,5.0822 0.8548,0.71 2.2191,1.2026 3.0494,2.0329 1.675,1.675 2.4541,5.3363 4.8281,5.3363"
   id="path99" />
  <path
   class="fil8 str4"
   d="M129.022 181c2.2031,3.4883 4.5651,6.0333 7.6233,8.6397 4.4023,3.7524 6.8857,11.0334 12.7055,12.1974"
   id="path101" />
  <path
   id="path21069"
   class="fil0 str4"
   d="M95.3466 234.703c0.2568,-0.1734 0.5143,-0.3432 0.7734,-0.5075 0.3455,-0.2193 0.6903,-0.4257 1.0486,-0.6012 0.3583,-0.1752 0.725,-0.3283 1.1046,-0.4305 0.3795,-0.1023 0.77,-0.1615 1.1794,-0.1615 0.4096,0 0.8093,0.0592 1.1891,0.1615 0.3795,0.1022 0.7462,0.2553 1.1046,0.4305 0.3583,0.1755 0.7028,0.3819 1.0483,0.6012 0.3457,0.2193 0.6886,0.4481 1.0299,0.6819 0.3411,0.234 0.6842,0.4717 1.0297,0.691 0.3455,0.2192 0.69,0.4167 1.0483,0.592 0.3584,0.1755 0.7251,0.3286 1.1049,0.4308 0.3795,0.1023 0.7792,0.1526 1.1888,0.1526 0.4094,0 0.7999,-0.0503 1.1794,-0.1526 0.3798,-0.1022 0.7463,-0.2553 1.1049,-0.4308 0.3583,-0.1753 0.7122,-0.3728 1.0577,-0.592 0.3455,-0.2193 0.6792,-0.457 1.0203,-0.691 0.3413,-0.2338 0.6842,-0.4626 1.0297,-0.6819 0.3457,-0.2193 0.6996,-0.4257 1.0579,-0.6012 0.3584,-0.1752 0.7251,-0.3283 1.1046,-0.4305 0.3798,-0.1023 0.7701,-0.1615 1.1797,-0.1615 0.0314,0.0014 0.0623,-0.0023 0.0934,0 0.022,0.0002 0.044,0.0084 0.0657,0.0089 0.277,0.0239 0.5505,0.0725 0.8143,0.1437 0.3798,0.1022 0.7463,0.2462 1.1046,0.4217 0.3583,0.1752 0.703,0.3818 1.0485,0.6011 0.3455,0.219 0.6884,0.457 1.0297,0.6908 0.3414,0.2338 0.6842,0.4626 1.0298,0.6819 0.3455,0.2192 0.6996,0.4256 1.0579,0.6011 0.3584,0.1753 0.7251,0.3194 1.1046,0.4217 0.3798,0.1023 0.77,0.1615 1.1794,0.1615 0.4097,0 0.7999,-0.0592 1.1797,-0.1615 0.3795,-0.1023 0.7462,-0.2462 1.1046,-0.4217 0.3583,-0.1755 0.7122,-0.3819 1.0579,-0.6011 0.3456,-0.2193 0.6884,-0.4481 1.0298,-0.6819 0.3413,-0.2338 0.6747,-0.4718 1.0202,-0.6908 0.3455,-0.2193 0.6997,-0.4259 1.058,-0.6011 0.3581,-0.1755 0.7248,-0.3195 1.1046,-0.4217 0.3795,-0.1025 0.77,-0.1617 1.1794,-0.1617 0.4096,0 0.8093,0.0592 1.1889,0.1617 0.3797,0.1022 0.737,0.2462 1.0954,0.4217 0.3583,0.1752 0.7122,0.3818 1.0577,0.6011 0.1727,0.1095 0.4384,0.3435 0.6098,0.4596l2.7282 -1.0081 3.1611 -1.3455 2.7038 -1.3111 2.856 -1.5568 2.9679 -1.9374c-0.2916,-0.0596 -0.5934,-0.0928 -0.9004,-0.0928 -0.4096,0 -0.7999,0.0592 -1.1797,0.1614 -0.3795,0.1025 -0.7462,0.2464 -1.1046,0.4217 -0.3583,0.1755 -0.703,0.391 -1.0485,0.6103 -0.3455,0.2192 -0.6884,0.4478 -1.0297,0.6818 -0.3413,0.2338 -0.6842,0.4716 -1.0297,0.6908 -0.3455,0.2193 -0.6903,0.4168 -1.0486,0.5923 -0.3583,0.1753 -0.7248,0.3194 -1.1046,0.4217 -0.3795,0.1022 -0.7794,0.1614 -1.1888,0.1614 -0.3822,0 -0.7494,-0.0592 -1.114,-0.1614 -0.3649,-0.1023 -0.7235,-0.2464 -1.0766,-0.4217 -0.3533,-0.1755 -0.7009,-0.373 -1.0485,-0.5923 -0.3473,-0.2192 -0.7004,-0.457 -1.0483,-0.6908 -0.3481,-0.234 -0.6941,-0.4626 -1.0486,-0.6818 -0.3546,-0.2193 -0.7098,-0.4348 -1.0765,-0.6103 -0.367,-0.1753 -0.7476,-0.3192 -1.1328,-0.4217 -0.3851,-0.1022 -0.7793,-0.1614 -1.1889,-0.1614 -0.4094,0 -0.7999,0.0592 -1.1794,0.1614 -0.3798,0.1025 -0.7465,0.2464 -1.1046,0.4217 -0.3583,0.1755 -0.7125,0.391 -1.058,0.6103 -0.3455,0.2192 -0.6789,0.4478 -1.0202,0.6818 -0.3414,0.2338 -0.6842,0.4716 -1.0298,0.6908 -0.3457,0.2193 -0.6996,0.4168 -1.0579,0.5923 -0.3584,0.1753 -0.7251,0.3194 -1.1046,0.4217 -0.3798,0.1022 -0.77,0.1614 -1.1797,0.1614 -0.4094,0 -0.7996,-0.0592 -1.1794,-0.1614 -0.3795,-0.1023 -0.7462,-0.2464 -1.1046,-0.4217 -0.3583,-0.1755 -0.7124,-0.373 -1.0579,-0.5923 -0.3456,-0.2192 -0.6884,-0.457 -1.0298,-0.6908 -0.2363,-0.1621 -0.4724,-0.3184 -0.7114,-0.4754 -0.0908,-0.0665 -0.1793,-0.1332 -0.2714,-0.1975 -0.3138,-0.2193 -0.6408,-0.4257 -0.9737,-0.6012 -0.3327,-0.1753 -0.6743,-0.3194 -1.0391,-0.4217 -0.322,-0.0903 -0.6643,-0.1495 -1.0203,-0.1614 -0.0157,-0.0005 -0.0309,0.0002 -0.0469,0 -0.1,-0.0073 -0.1971,-0.018 -0.2994,-0.018 -0.4096,0 -0.796,0.0592 -1.1608,0.1614 -0.3649,0.1025 -0.7062,0.2464 -1.0392,0.4217 -0.3329,0.1755 -0.6598,0.391 -0.9737,0.6103 -0.1918,0.134 -0.3819,0.2705 -0.5708,0.4127 -0.1406,0.095 -0.2809,0.191 -0.4214,0.2872 -0.3411,0.2337 -0.6748,0.4626 -1.0203,0.6818 -0.3455,0.2191 -0.6994,0.4257 -1.0577,0.6012 -0.3586,0.1753 -0.7251,0.3192 -1.1049,0.4217 -0.3795,0.1022 -0.77,0.1614 -1.1794,0.1614 -0.4096,0 -0.8093,-0.0592 -1.1888,-0.1614 -0.3798,-0.1025 -0.7465,-0.2464 -1.1049,-0.4217 -0.3583,-0.1755 -0.7028,-0.3821 -1.0483,-0.6012 -0.3455,-0.2192 -0.6886,-0.4481 -1.0297,-0.6818 -0.3413,-0.234 -0.6842,-0.4718 -1.0299,-0.691 -0.3455,-0.2193 -0.69,-0.4257 -1.0483,-0.6012 -0.3584,-0.1753 -0.7251,-0.3194 -1.1046,-0.4217 -0.3798,-0.1022 -0.7795,-0.1614 -1.1891,-0.1614 -0.4094,0 -0.7999,0.0592 -1.1794,0.1614 -0.3796,0.1023 -0.7463,0.2464 -1.1046,0.4217 -0.3583,0.1755 -0.7031,0.3819 -1.0486,0.6012 -0.3455,0.2192 -0.6883,0.457 -1.0297,0.691 -0.3413,0.2337 -0.6842,0.4626 -1.0297,0.6818 -0.3455,0.2191 -0.6902,0.4257 -1.0485,0.6012 -0.3584,0.1753 -0.7251,0.3192 -1.1046,0.4217 -0.3798,0.1022 -0.7795,0.1614 -1.1888,0.1614 -0.3824,0 -0.7494,-0.0592 -1.114,-0.1614 -0.3649,-0.1025 -0.7235,-0.2464 -1.0766,-0.4217 -0.3533,-0.1755 -0.7009,-0.3821 -1.0485,-0.6012 -0.3476,-0.2192 -0.7005,-0.4481 -1.0486,-0.6818 -0.3481,-0.234 -0.6939,-0.4718 -1.0483,-0.691 -0.3546,-0.2193 -0.7193,-0.4257 -1.086,-0.6012 -0.3669,-0.1753 -0.7381,-0.3194 -1.1234,-0.4217 -0.3853,-0.1022 -0.7795,-0.1614 -1.1888,-0.1614 -0.4097,0 -0.7999,0.0592 -1.1794,0.1614l3.4385 2.1603 3.494 1.8384 3.8728 1.7384 3.7362 1.4009z"
   sodipodi:nodetypes="cssssssssssssssssssssssssssssssssssssssssssssssssssssccssssssssssssssssssssssssssssssssssssssssssssssssssssssssssssssssssssssssssssssssssssssssssssssssssssssssccssssssssssssssssssssssssssssssssssssssssssssssssssssssc" />
  <path
   id="path4837"
   class="fil0 str4"
   d="M163.746 218.462c-0.3455,0.2193 -0.6994,0.4168 -1.0577,0.592 -0.3583,0.1755 -0.7251,0.3194 -1.1046,0.4217 -0.3798,0.1025 -0.77,0.1617 -1.1797,0.1617 -0.4093,0 -0.7999,-0.0592 -1.1794,-0.1617 -0.3798,-0.1023 -0.7465,-0.2462 -1.1048,-0.4217 -0.3584,-0.1752 -0.7122,-0.3727 -1.0577,-0.592 -0.3455,-0.2193 -0.6884,-0.457 -1.0297,-0.691 -0.3414,-0.2338 -0.6842,-0.4626 -1.0298,-0.6819 -0.3455,-0.2193 -0.6902,-0.4345 -1.0485,-0.61 -0.3583,-0.1755 -0.725,-0.3195 -1.1046,-0.4217 -0.3798,-0.1023 -0.7794,-0.1615 -1.1888,-0.1615 -0.4096,0 -0.7999,0.0592 -1.1797,0.1615 -0.3795,0.1022 -0.7462,0.2462 -1.1046,0.4217 -0.3583,0.1752 -0.703,0.3907 -1.0485,0.61 -0.3455,0.2193 -0.6884,0.4481 -1.0297,0.6819 -0.3413,0.234 -0.6842,0.4717 -1.0297,0.691 -0.3455,0.2193 -0.6903,0.4168 -1.0486,0.592 -0.3583,0.1755 -0.7248,0.3194 -1.1046,0.4217 -0.3795,0.1025 -0.7794,0.1617 -1.1888,0.1617 -0.3822,0 -0.7494,-0.0592 -1.114,-0.1617 -0.3649,-0.1023 -0.7235,-0.2462 -1.0766,-0.4217 -0.3533,-0.1752 -0.7009,-0.3727 -1.0485,-0.592 -0.3473,-0.2193 -0.7004,-0.457 -1.0483,-0.691 -0.3481,-0.2338 -0.6941,-0.4626 -1.0486,-0.6819 -0.3546,-0.2193 -0.7098,-0.4345 -1.0765,-0.61 -0.367,-0.1755 -0.7476,-0.3195 -1.1328,-0.4217 -0.3851,-0.1023 -0.7793,-0.1615 -1.1889,-0.1615 -0.4094,0 -0.7999,0.0592 -1.1794,0.1615 -0.3798,0.1022 -0.7465,0.2462 -1.1046,0.4217 -0.3583,0.1752 -0.7125,0.3907 -1.058,0.61 -0.3455,0.2193 -0.6789,0.4481 -1.0202,0.6819 -0.3414,0.234 -0.6842,0.4717 -1.0298,0.691 -0.3457,0.2193 -0.6996,0.4168 -1.0579,0.592 -0.3584,0.1755 -0.7251,0.3194 -1.1046,0.4217 -0.3798,0.1025 -0.77,0.1617 -1.1797,0.1617 -0.4094,0 -0.7996,-0.0592 -1.1794,-0.1617 -0.3795,-0.1023 -0.7462,-0.2462 -1.1046,-0.4217 -0.3583,-0.1752 -0.7124,-0.3727 -1.0579,-0.592 -0.3456,-0.2193 -0.6884,-0.457 -1.0298,-0.691 -0.2363,-0.1619 -0.4724,-0.3185 -0.7114,-0.4755 -0.0908,-0.0665 -0.1793,-0.1329 -0.2714,-0.1973 -0.3138,-0.2192 -0.6408,-0.4259 -0.9737,-0.6011 -0.3327,-0.1755 -0.6743,-0.3194 -1.0391,-0.4217 -0.322,-0.0903 -0.6643,-0.1495 -1.0203,-0.1617 -0.0157,-0.0005 -0.0309,0.0005 -0.0469,0 -0.1,-0.007 -0.1971,-0.0178 -0.2994,-0.0178 -0.4096,0 -0.796,0.0592 -1.1608,0.1615 -0.3649,0.1022 -0.7062,0.2462 -1.0392,0.4217 -0.3329,0.1752 -0.6598,0.3907 -0.9737,0.61 -0.1918,0.1343 -0.3819,0.2705 -0.5708,0.4128 -0.1406,0.095 -0.2809,0.1909 -0.4214,0.2871 -0.3411,0.2338 -0.6748,0.4626 -1.0203,0.6819 -0.3455,0.2193 -0.6994,0.4259 -1.0577,0.6011 -0.3586,0.1755 -0.7251,0.3195 -1.1049,0.4217 -0.3795,0.1023 -0.77,0.1615 -1.1794,0.1615 -0.4096,0 -0.8093,-0.0592 -1.1888,-0.1615 -0.3798,-0.1022 -0.7465,-0.2462 -1.1049,-0.4217 -0.3583,-0.1752 -0.7028,-0.3818 -1.0483,-0.6011 -0.3455,-0.2193 -0.6886,-0.4481 -1.0297,-0.6819 -0.3413,-0.2338 -0.6842,-0.4715 -1.0299,-0.6908 -0.3455,-0.2192 -0.69,-0.4259 -1.0483,-0.6011 -0.3584,-0.1755 -0.7251,-0.3194 -1.1046,-0.4217 -0.3798,-0.1025 -0.7795,-0.1617 -1.1891,-0.1617 -0.4094,0 -0.7999,0.0592 -1.1794,0.1617 -0.3796,0.1023 -0.7463,0.2462 -1.1046,0.4217 -0.3583,0.1752 -0.7031,0.3819 -1.0486,0.6011 -0.3455,0.2193 -0.6883,0.457 -1.0297,0.6908 -0.3413,0.2338 -0.6842,0.4626 -1.0297,0.6819 -0.3455,0.2193 -0.6902,0.4259 -1.0485,0.6011 -0.3584,0.1755 -0.7251,0.3195 -1.1046,0.4217 -0.3798,0.1023 -0.7795,0.1615 -1.1888,0.1615 -0.3824,0 -0.7494,-0.0592 -1.114,-0.1615 -0.3649,-0.1022 -0.7235,-0.2462 -1.0766,-0.4217 -0.3533,-0.1752 -0.7009,-0.3818 -1.0485,-0.6011 -0.3476,-0.2193 -0.7005,-0.4481 -1.0486,-0.6819 -0.3481,-0.2338 -0.6939,-0.4715 -1.0483,-0.6908 -0.3546,-0.2192 -0.7193,-0.4259 -1.086,-0.6011 -0.3669,-0.1755 -0.7381,-0.3194 -1.1234,-0.4217 -0.3853,-0.1025 -0.7795,-0.1617 -1.1888,-0.1617 -0.4097,0 -0.7999,0.0592 -1.1794,0.1617 -0.3798,0.1023 -0.7465,0.2462 -1.1049,0.4217 -0.3583,0.1752 -0.7122,0.3819 -1.0577,0.6011 -0.3455,0.2193 -0.6884,0.457 -1.0297,0.6908 -0.3413,0.2338 -0.675,0.4626 -1.0205,0.6819 -0.3455,0.2193 -0.6994,0.4259 -1.0578,0.6011 -0.3583,0.1755 -0.725,0.3195 -1.1045,0.4217 -0.3798,0.1023 -0.7701,0.1615 -1.1797,0.1615 -0.4094,0 -0.8091,-0.0592 -1.1889,-0.1615 -0.3795,-0.1022 -0.7462,-0.2462 -1.1045,-0.4217 -0.3584,-0.1752 -0.7031,-0.3818 -1.0486,-0.6011 -0.3455,-0.2193 -0.6884,-0.4481 -1.0297,-0.6819l7.1894 6.6019c0.1764,-0.0987 0.3515,-0.2029 0.5243,-0.3124 0.3455,-0.2192 0.6792,-0.457 1.0205,-0.6907 0.3413,-0.234 0.6842,-0.4627 1.0297,-0.6819 0.3455,-0.2193 0.6994,-0.4259 1.0577,-0.6012 0.3584,-0.1755 0.7251,-0.3283 1.1049,-0.4308 0.3795,-0.1022 0.7697,-0.1614 1.1794,-0.1614 0.4093,0 0.7999,0.0592 1.1794,0.1614 0.3798,0.1025 0.7465,0.2553 1.1048,0.4308 0.3584,0.1753 0.7122,0.3819 1.0577,0.6012 0.3455,0.2192 0.6884,0.4479 1.0298,0.6819 0.3413,0.2337 0.6747,0.4715 1.0205,0.6907 0.3455,0.2193 0.6994,0.4168 1.0577,0.5923 0.3583,0.1753 0.725,0.3283 1.1046,0.4306 0.3798,0.1022 0.77,0.1525 1.1797,0.1525 0.4093,0 0.809,-0.0501 1.1888,-0.1525 0.3795,-0.1023 0.7462,-0.2553 1.1046,-0.4306 0.3583,-0.1755 0.703,-0.373 1.0485,-0.5923 0.3455,-0.2192 0.6884,-0.457 1.0297,-0.6907 0.3414,-0.234 0.6842,-0.4627 1.0297,-0.6819 0.3455,-0.2193 0.6903,-0.4259 1.0486,-0.6012 0.3583,-0.1755 0.725,-0.3283 1.1046,-0.4308 0.3795,-0.1022 0.77,-0.1614 1.1794,-0.1614 0.4096,0 0.8093,0.0592 1.1891,0.1614 0.3795,0.1025 0.7462,0.2553 1.1046,0.4308 0.3583,0.1753 0.7028,0.3819 1.0483,0.6012 0.3457,0.2192 0.6886,0.4479 1.0299,0.6819 0.3411,0.2337 0.6842,0.4715 1.0297,0.6907 0.3455,0.2193 0.69,0.4168 1.0483,0.5923 0.3584,0.1753 0.7251,0.3283 1.1049,0.4306 0.3795,0.1022 0.7792,0.1525 1.1888,0.1525 0.4094,0 0.7999,-0.0501 1.1794,-0.1525 0.3798,-0.1023 0.7463,-0.2553 1.1049,-0.4306 0.3583,-0.1755 0.7122,-0.373 1.0577,-0.5923 0.3455,-0.2192 0.6792,-0.457 1.0203,-0.6907 0.3413,-0.234 0.6842,-0.4627 1.0297,-0.6819 0.3457,-0.2193 0.6996,-0.4259 1.0579,-0.6012 0.3584,-0.1755 0.7251,-0.3283 1.1046,-0.4308 0.3798,-0.1022 0.7701,-0.1614 1.1797,-0.1614 0.0314,0.0016 0.0623,-0.0021 0.0934,0 0.022,0.0004 0.044,0.0084 0.0657,0.0091 0.277,0.0239 0.5505,0.0723 0.8143,0.1434 0.3798,0.1023 0.7463,0.2464 1.1046,0.4217 0.3583,0.1755 0.703,0.3819 1.0485,0.6012 0.3455,0.2192 0.6884,0.457 1.0297,0.691 0.3414,0.2337 0.6842,0.4626 1.0298,0.6818 0.3455,0.2191 0.6996,0.4257 1.0579,0.6012 0.3584,0.1753 0.7251,0.3192 1.1046,0.4217 0.3798,0.1022 0.77,0.1614 1.1794,0.1614 0.4097,0 0.7999,-0.0592 1.1797,-0.1614 0.3795,-0.1025 0.7462,-0.2464 1.1046,-0.4217 0.3583,-0.1755 0.7122,-0.3821 1.0579,-0.6012 0.3456,-0.2192 0.6884,-0.4481 1.0298,-0.6818 0.3413,-0.234 0.6747,-0.4718 1.0202,-0.691 0.3455,-0.2193 0.6997,-0.4257 1.058,-0.6012 0.3581,-0.1753 0.7248,-0.3194 1.1046,-0.4217 0.3795,-0.1022 0.77,-0.1614 1.1794,-0.1614 0.4096,0 0.8093,0.0592 1.1889,0.1614 0.3797,0.1023 0.737,0.2464 1.0954,0.4217 0.3583,0.1755 0.7122,0.3819 1.0577,0.6012 0.3455,0.2192 0.6886,0.457 1.0297,0.691 0.3413,0.2337 0.6842,0.4626 1.0299,0.6818 0.3456,0.2191 0.69,0.4257 1.0483,0.6012 0.3584,0.1753 0.7251,0.3192 1.1049,0.4217 0.3795,0.1022 0.7698,0.1614 1.1794,0.1614 0.4094,0 0.8093,-0.0592 1.1888,-0.1614 0.3798,-0.1025 0.7463,-0.2464 1.1046,-0.4217 0.3583,-0.1755 0.7031,-0.3821 1.0486,-0.6012 0.3455,-0.2192 0.6884,-0.4481 1.0297,-0.6818 0.3413,-0.234 0.6842,-0.4718 1.0297,-0.691 0.3455,-0.2193 0.6902,-0.4257 1.0485,-0.6012 0.3584,-0.1753 0.7251,-0.3194 1.1046,-0.4217 0.3798,-0.1022 0.7701,-0.1614 1.1797,-0.1614 0.4094,0 0.809,0.0592 1.1888,0.1614 0.3796,0.1023 0.7463,0.2464 1.1046,0.4217 0.3583,0.1755 0.703,0.3819 1.0485,0.6012 0.3456,0.2192 0.6884,0.457 1.0298,0.691 0.3413,0.2337 0.6842,0.4626 1.0297,0.6818 0.0863,0.0548 0.1732,0.1089 0.2604,0.1615l6.4235 -5.7602z"
   sodipodi:nodetypes="cssssssssssssssssssssssssssssssssssssssssssssssssssssccssssssssssssssssssssssssssssssssssssssssssssssssssssssssssssssssssssssssssssssssssssssssssssssssssssssssccssssssssssssssssssssssssssssssssssssssssssssssssssssssc" />
  <path
   id="path4845"
   class="fil0 str4"
   d="M62.8192 210.248c0.1749,-0.073 0.3539,-0.1369 0.5363,-0.1879 0.3646,-0.1022 0.7512,-0.1614 1.1606,-0.1614 0.4096,0 0.7999,0.0592 1.1797,0.1614 0.3795,0.1023 0.7462,0.2553 1.1046,0.4306 0.3583,0.1755 0.703,0.3819 1.0485,0.6012 0.3455,0.2192 0.6884,0.4481 1.0297,0.6818 0.3413,0.234 0.6842,0.4718 1.0297,0.691 0.3455,0.2193 0.6902,0.4168 1.0486,0.5921 0.3583,0.1755 0.725,0.3285 1.1045,0.4308 0.3798,0.1022 0.7795,0.1525 1.1889,0.1525 0.4096,0 0.7999,-0.0503 1.1797,-0.1525 0.3795,-0.1023 0.7462,-0.2553 1.1045,-0.4308 0.3584,-0.1753 0.7123,-0.3728 1.0578,-0.5921 0.3455,-0.2192 0.6792,-0.457 1.0205,-0.691 0.3413,-0.2337 0.6842,-0.4626 1.0297,-0.6818 0.3455,-0.2193 0.6994,-0.4257 1.0577,-0.6012 0.3584,-0.1753 0.7251,-0.3283 1.1049,-0.4306 0.3795,-0.1022 0.7697,-0.1614 1.1794,-0.1614 0.4093,0 0.7999,0.0592 1.1794,0.1614 0.3798,0.1023 0.7465,0.2553 1.1048,0.4306 0.3584,0.1755 0.7122,0.3819 1.0577,0.6012 0.3455,0.2192 0.6884,0.4481 1.0298,0.6818 0.3413,0.234 0.6747,0.4718 1.0205,0.691 0.3455,0.2193 0.6994,0.4168 1.0577,0.5921 0.3583,0.1755 0.725,0.3285 1.1046,0.4308 0.3798,0.1022 0.77,0.1525 1.1797,0.1525 0.4093,0 0.809,-0.0503 1.1888,-0.1525 0.3795,-0.1023 0.7462,-0.2553 1.1046,-0.4308 0.3583,-0.1753 0.703,-0.3728 1.0485,-0.5921 0.3455,-0.2192 0.6884,-0.457 1.0297,-0.691 0.3414,-0.2337 0.6842,-0.4626 1.0297,-0.6818 0.3455,-0.2193 0.6903,-0.4257 1.0486,-0.6012 0.3583,-0.1753 0.725,-0.3283 1.1046,-0.4306 0.3795,-0.1022 0.77,-0.1614 1.1794,-0.1614 0.4096,0 0.8093,0.0592 1.1891,0.1614 0.3795,0.1023 0.7462,0.2553 1.1046,0.4306 0.3583,0.1755 0.7028,0.3819 1.0483,0.6012 0.3457,0.2192 0.6886,0.4481 1.0299,0.6818 0.3411,0.234 0.6842,0.4718 1.0297,0.691 0.3455,0.2193 0.69,0.4168 1.0483,0.5921 0.3584,0.1755 0.7251,0.3285 1.1049,0.4308 0.3795,0.1022 0.7792,0.1525 1.1888,0.1525 0.4094,0 0.7999,-0.0503 1.1794,-0.1525 0.3798,-0.1023 0.7463,-0.2553 1.1049,-0.4308 0.3583,-0.1753 0.7122,-0.3728 1.0577,-0.5921 0.3455,-0.2192 0.6792,-0.457 1.0203,-0.691 0.3413,-0.2337 0.6842,-0.4626 1.0297,-0.6818 0.3457,-0.2193 0.6996,-0.4257 1.0579,-0.6012 0.3584,-0.1753 0.7251,-0.3283 1.1046,-0.4306 0.3798,-0.1022 0.7701,-0.1614 1.1797,-0.1614 0.0314,0.0014 0.0623,-0.0024 0.0934,0 0.022,0.0002 0.044,0.0084 0.0657,0.0089 0.277,0.0241 0.5505,0.0725 0.8143,0.1436 0.3798,0.1023 0.7463,0.2462 1.1046,0.4217 0.3583,0.1753 0.703,0.3819 1.0485,0.6012 0.3455,0.2192 0.6884,0.457 1.0297,0.6907 0.3414,0.2338 0.6842,0.4627 1.0298,0.6819 0.3455,0.2193 0.6996,0.4259 1.0579,0.6012 0.3584,0.1755 0.7251,0.3194 1.1046,0.4217 0.3798,0.1022 0.77,0.1614 1.1794,0.1614 0.4097,0 0.7999,-0.0592 1.1797,-0.1614 0.3795,-0.1023 0.7462,-0.2462 1.1046,-0.4217 0.3583,-0.1753 0.7122,-0.3819 1.0579,-0.6012 0.3456,-0.2192 0.6884,-0.4481 1.0298,-0.6819 0.3413,-0.2337 0.6747,-0.4715 1.0202,-0.6907 0.3455,-0.2193 0.6997,-0.4259 1.058,-0.6012 0.3581,-0.1755 0.7248,-0.3194 1.1046,-0.4217 0.3795,-0.1025 0.77,-0.1614 1.1794,-0.1614 0.4096,-0.0003 0.8093,0.0589 1.1889,0.1614 0.3797,0.1023 0.737,0.2462 1.0954,0.4217 0.3583,0.1753 0.7122,0.3819 1.0577,0.6012 0.3455,0.2192 0.6886,0.457 1.0297,0.6907 0.3413,0.2338 0.6842,0.4627 1.0299,0.6819 0.3456,0.2193 0.69,0.4259 1.0483,0.6012 0.3584,0.1755 0.7251,0.3194 1.1049,0.4217 0.3795,0.1022 0.7698,0.1614 1.1794,0.1614 0.4094,0 0.8093,-0.0592 1.1888,-0.1614 0.3798,-0.1023 0.7463,-0.2462 1.1046,-0.4217 0.3583,-0.1753 0.7031,-0.3819 1.0486,-0.6012 0.3455,-0.2192 0.6884,-0.4481 1.0297,-0.6819 0.3413,-0.2337 0.6842,-0.4715 1.0297,-0.6907 0.3455,-0.2193 0.6902,-0.4259 1.0485,-0.6012 0.3584,-0.1755 0.7251,-0.3194 1.1046,-0.4217 0.3798,-0.1025 0.7701,-0.1614 1.1797,-0.1614 0.4094,-0.0003 0.809,0.0589 1.1888,0.1614 0.3796,0.1023 0.7463,0.2462 1.1046,0.4217 0.3583,0.1753 0.703,0.3819 1.0485,0.6012 0.3456,0.2192 0.6884,0.457 1.0298,0.6907 0.3413,0.2338 0.6842,0.4627 1.0297,0.6819 0.3455,0.2193 0.6993,0.4259 1.0577,0.6012 0.3583,0.1755 0.725,0.3194 1.1048,0.4217 0.3795,0.1022 0.7701,0.1614 1.1794,0.1614 0.4097,0 0.7999,-0.0592 1.1797,-0.1614 0.3795,-0.1023 0.7463,-0.2462 1.1046,-0.4217 0.3583,-0.1753 0.7122,-0.3819 1.0577,-0.6012 0.3455,-0.2192 0.6884,-0.4481 1.0297,-0.6819 0.3413,-0.2337 0.675,-0.4715 1.0206,-0.6907 0.3455,-0.2193 0.6993,-0.4259 1.0577,-0.6012 0.3583,-0.1755 0.725,-0.3194 1.1045,-0.4217 0.3798,-0.1025 0.7701,-0.1614 1.1797,-0.1614 0.4913,-0.0003 0.9384,0.0589 1.348,0.1614l2.4918 -3.5044c0.0092,-0.1743 0.0207,-0.3323 0.0338,-0.4706 -0.3073,-0.234 -0.3863,-0.3816 -0.7002,-0.6009 -0.3136,-0.2192 -0.6407,-0.4348 -0.9734,-0.61 -0.333,-0.1755 -0.6745,-0.3194 -1.0391,-0.4217 -0.3649,-0.1025 -0.7515,-0.1617 -1.1609,-0.1617 -0.4096,0 -0.7999,0.0592 -1.1797,0.1617 -0.3795,0.1023 -0.7462,0.2462 -1.1045,0.4217 -0.3584,0.1752 -0.7122,0.3908 -1.0577,0.61 -0.3456,0.2193 -0.6793,0.4481 -1.0206,0.6819 -0.341,0.2338 -0.6842,0.4715 -1.0297,0.6908 -0.3455,0.2192 -0.6994,0.4167 -1.0577,0.5922 -0.3583,0.1755 -0.7251,0.3195 -1.1046,0.4217 -0.3798,0.1023 -0.77,0.1615 -1.1797,0.1615 -0.4093,0 -0.7999,-0.0592 -1.1794,-0.1615 -0.3798,-0.1022 -0.7465,-0.2464 -1.1048,-0.4217 -0.3584,-0.1755 -0.7122,-0.373 -1.0577,-0.5922 -0.3455,-0.2193 -0.6884,-0.457 -1.0297,-0.6908 -0.3414,-0.2338 -0.6842,-0.4626 -1.0298,-0.6819 -0.3455,-0.2192 -0.6902,-0.4348 -1.0485,-0.61 -0.3583,-0.1755 -0.725,-0.3194 -1.1046,-0.4217 -0.3798,-0.1025 -0.7794,-0.1617 -1.1888,-0.1617 -0.4096,0 -0.7999,0.0592 -1.1797,0.1617 -0.3795,0.1023 -0.7462,0.2462 -1.1046,0.4217 -0.3583,0.1752 -0.703,0.3908 -1.0485,0.61 -0.3455,0.2193 -0.6884,0.4481 -1.0297,0.6819 -0.3413,0.2338 -0.6842,0.4715 -1.0297,0.6908 -0.3455,0.2192 -0.6903,0.4167 -1.0486,0.5922 -0.3583,0.1755 -0.7248,0.3195 -1.1046,0.4217 -0.3795,0.1023 -0.7794,0.1615 -1.1888,0.1615 -0.3822,0 -0.7494,-0.0592 -1.114,-0.1615 -0.3649,-0.1022 -0.7235,-0.2464 -1.0766,-0.4217 -0.3533,-0.1755 -0.7009,-0.373 -1.0485,-0.5922 -0.3473,-0.2193 -0.7004,-0.457 -1.0483,-0.6908 -0.3481,-0.2338 -0.6941,-0.4626 -1.0486,-0.6819 -0.3546,-0.2192 -0.7098,-0.4348 -1.0765,-0.61 -0.367,-0.1755 -0.7476,-0.3194 -1.1328,-0.4217 -0.3851,-0.1025 -0.7793,-0.1617 -1.1889,-0.1617 -0.4094,0 -0.7999,0.0592 -1.1794,0.1617 -0.3798,0.1023 -0.7465,0.2462 -1.1046,0.4217 -0.3583,0.1752 -0.7125,0.3908 -1.058,0.61 -0.3455,0.2193 -0.6789,0.4481 -1.0202,0.6819 -0.3414,0.2338 -0.6842,0.4715 -1.0298,0.6908 -0.3457,0.2192 -0.6996,0.4167 -1.0579,0.5922 -0.3584,0.1755 -0.7251,0.3195 -1.1046,0.4217 -0.3798,0.1023 -0.77,0.1615 -1.1797,0.1615 -0.4094,0 -0.7996,-0.0592 -1.1794,-0.1615 -0.3795,-0.1022 -0.7462,-0.2464 -1.1046,-0.4217 -0.3583,-0.1755 -0.7124,-0.373 -1.0579,-0.5922 -0.3456,-0.2193 -0.6884,-0.457 -1.0298,-0.6908 -0.2363,-0.1622 -0.4724,-0.3185 -0.7114,-0.4755 -0.0908,-0.0664 -0.1793,-0.1331 -0.2714,-0.1975 -0.3138,-0.2192 -0.6408,-0.4256 -0.9737,-0.6011 -0.3327,-0.1753 -0.6743,-0.3195 -1.0391,-0.4217 -0.322,-0.0903 -0.6643,-0.1495 -1.0203,-0.1615 -0.0157,-0.0004 -0.0309,0.0005 -0.0469,0 -0.1,-0.007 -0.1971,-0.018 -0.2994,-0.018 -0.4096,0 -0.796,0.0592 -1.1608,0.1617 -0.3649,0.1023 -0.7062,0.2462 -1.0392,0.4217 -0.3329,0.1752 -0.6598,0.3908 -0.9737,0.61 -0.1918,0.1341 -0.3819,0.2705 -0.5708,0.4128 -0.1406,0.095 -0.2809,0.1909 -0.4214,0.2871 -0.3411,0.2338 -0.6748,0.4626 -1.0203,0.6819 -0.3455,0.2193 -0.6994,0.4257 -1.0577,0.6012 -0.3586,0.1752 -0.7251,0.3194 -1.1049,0.4216 -0.3795,0.1023 -0.77,0.1615 -1.1794,0.1615 -0.4096,0 -0.8093,-0.0592 -1.1888,-0.1615 -0.3798,-0.1022 -0.7465,-0.2464 -1.1049,-0.4216 -0.3583,-0.1755 -0.7028,-0.3819 -1.0483,-0.6012 -0.3455,-0.2193 -0.6886,-0.4481 -1.0297,-0.6819 -0.3413,-0.234 -0.6842,-0.4717 -1.0299,-0.691 -0.3455,-0.2192 -0.69,-0.4256 -1.0483,-0.6011 -0.3584,-0.1753 -0.7251,-0.3195 -1.1046,-0.4217 -0.3798,-0.1023 -0.7795,-0.1615 -1.1891,-0.1615 -0.4094,0 -0.7999,0.0592 -1.1794,0.1615 -0.3796,0.1022 -0.7463,0.2464 -1.1046,0.4217 -0.3583,0.1755 -0.7031,0.3819 -1.0486,0.6011 -0.3455,0.2193 -0.6883,0.457 -1.0297,0.691 -0.3413,0.2338 -0.6842,0.4626 -1.0297,0.6819 -0.3455,0.2193 -0.6902,0.4257 -1.0485,0.6012 -0.3584,0.1752 -0.7251,0.3194 -1.1046,0.4216 -0.3798,0.1023 -0.7795,0.1615 -1.1888,0.1615 -0.3824,0 -0.7494,-0.0592 -1.114,-0.1615 -0.3649,-0.1022 -0.7235,-0.2464 -1.0766,-0.4216 -0.3533,-0.1755 -0.7009,-0.3819 -1.0485,-0.6012 -0.3476,-0.2193 -0.7005,-0.4481 -1.0486,-0.6819 -0.3481,-0.234 -0.6939,-0.4717 -1.0483,-0.691 -0.3546,-0.2192 -0.7193,-0.4256 -1.086,-0.6011 -0.3669,-0.1753 -0.7381,-0.3195 -1.1234,-0.4217 -0.3853,-0.1023 -0.7795,-0.1615 -1.1888,-0.1615 -0.4097,0 -0.7999,0.0592 -1.1794,0.1615 -0.3798,0.1022 -0.7465,0.2464 -1.1049,0.4217 -0.3583,0.1755 -0.7122,0.3819 -1.0577,0.6011 -0.3455,0.2193 -0.6884,0.457 -1.0297,0.691 -0.3413,0.2338 -0.675,0.4626 -1.0205,0.6819 -0.3455,0.2193 -0.6994,0.4257 -1.0578,0.6012 -0.3583,0.1752 -0.725,0.3194 -1.1045,0.4216 -0.3798,0.1023 -0.7701,0.1615 -1.1797,0.1615 -0.4094,0 -0.8091,-0.0592 -1.1889,-0.1615 -0.3795,-0.1022 -0.7462,-0.2464 -1.1045,-0.4216 -0.3584,-0.1755 -0.7031,-0.3819 -1.0486,-0.6012 -0.3455,-0.2193 -0.6884,-0.4481 -1.0297,-0.6819 -0.3413,-0.234 -0.6842,-0.4717 -1.0297,-0.691 -0.3455,-0.2192 -0.6902,-0.4256 -1.0485,-0.6011 -0.3584,-0.1753 -0.7251,-0.3195 -1.1046,-0.4217 -0.3798,-0.1023 -0.7701,-0.1615 -1.1797,-0.1615 -0.4094,0 -0.796,0.0592 -1.1606,0.1615 -0.3649,0.1022 -0.7156,0.2464 -1.0485,0.4217 -0.333,0.1755 -0.6505,0.3819 -0.9643,0.6011 -0.3021,0.2111 -0.8198,0.4388 -1.1158,0.6641 -0.0039,0.1077 -0.0079,0.2169 -0.0108,0.3279l2.6031 3.7718z"
   sodipodi:nodetypes="cssssssssssssssssssssssssssssssssssssssssssssssssssssccssssssssssssssssssssssssssssssssssssssssssssssssssssssssssssssssssssssssssssssssssssssssssssssssssssssssccssssssssssssssssssssssssssssssssssssssssssssssssssssssc" />
  <path
   class="fil10"
   d="M59.1773 252.056l0 -7.5759 1.5099 0 1.7921 5.364c0.1658,0.4992 0.2875,0.8731 0.3616,1.1218 0.0864,-0.2751 0.2205,-0.6808 0.4039,-1.2153l1.8133 -5.2705 1.3494 0 0 7.5759 -0.9666 0 0 -6.3412 -2.2013 6.3412 -0.9049 0 -2.1908 -6.4488 0 6.4488 -0.9666 0z"
   id="path106" />
  <path
   id="1"
   class="fil10"
   d="M72.9956 244.48l1.0037 0 0 4.378c0,0.7602 -0.0865,1.3652 -0.2593,1.8133 -0.1729,0.448 -0.4833,0.8113 -0.9331,1.0918 -0.4498,0.2822 -1.039,0.4216 -1.7692,0.4216 -0.7091,0 -1.2912,-0.1217 -1.741,-0.3669 -0.4515,-0.2434 -0.7743,-0.598 -0.9666,-1.0619 -0.194,-0.4639 -0.2892,-1.0954 -0.2892,-1.8979l0 -4.378 1.0018 0 0 4.3727c0,0.6579 0.0618,1.143 0.1835,1.4534 0.1217,0.3122 0.3334,0.5521 0.6297,0.7215 0.2981,0.1693 0.6632,0.254 1.0936,0.254 0.7373,0 1.2629,-0.1676 1.5769,-0.5028 0.3122,-0.3333 0.4692,-0.9754 0.4692,-1.9261l0 -4.3727z" />
  <polygon
   id="12"
   class="fil10"
   points="75.6573,252.056 75.6573,244.48 76.6856,244.48 80.665,250.428 80.665,244.48 81.6263,244.48 81.6263,252.056 80.5979,252.056 76.6186,246.103 76.6186,252.056 " />
  <polygon
   id="123"
   class="fil10"
   points="83.4819,252.056 83.4819,244.48 84.4838,244.48 84.4838,252.056 " />
  <path
   id="1234"
   class="fil10"
   d="M91.6557 249.4l1.0037 0.254c-0.2099,0.822 -0.5892,1.4499 -1.1342,1.8838 -0.5468,0.4322 -1.2136,0.6474 -2.0038,0.6474 -0.8167,0 -1.4799,-0.1658 -1.9914,-0.4975 -0.5115,-0.3333 -0.9014,-0.8149 -1.1677,-1.4446 -0.2663,-0.6314 -0.4004,-1.3088 -0.4004,-2.032 0,-0.7884 0.1499,-1.4763 0.4516,-2.0637 0.3016,-0.5874 0.7302,-1.0336 1.2876,-1.3388 0.5556,-0.3051 1.1677,-0.4568 1.8362,-0.4568 0.7585,0 1.3952,0.1922 1.912,0.5785 0.5169,0.3863 0.8767,0.9278 1.0795,1.6281l-0.986 0.2328c-0.1764,-0.5521 -0.4304,-0.9525 -0.7655,-1.2047 -0.3334,-0.2523 -0.7532,-0.3775 -1.2612,-0.3775 -0.5821,0 -1.0671,0.1394 -1.4587,0.418 -0.3916,0.2805 -0.6668,0.6544 -0.8237,1.1254 -0.1588,0.4692 -0.2382,0.9543 -0.2382,1.4534 0,0.6456 0.0935,1.2065 0.2805,1.6881 0.1887,0.4798 0.4798,0.8396 0.8766,1.0777 0.3969,0.2381 0.8255,0.3563 1.2877,0.3563 0.5609,0 1.0354,-0.1623 1.4252,-0.4851 0.3898,-0.3245 0.6526,-0.806 0.7902,-1.4428z" />
  <polygon
   id="12345"
   class="fil10"
   points="94.0652,252.056 94.0652,244.48 95.0671,244.48 95.0671,252.056 " />
  <path
   id="123456"
   class="fil10"
   d="M96.8345 252.056l0 -7.5759 2.8575 0c0.5027,0 0.8872,0.0247 1.1518,0.0723 0.3722,0.0618 0.6844,0.18 0.9366,0.3546 0.2505,0.1728 0.4533,0.418 0.6068,0.7302 0.1534,0.314 0.2293,0.658 0.2293,1.0337 0,0.6438 -0.2046,1.1906 -0.6138,1.6368 -0.411,0.4445 -1.1519,0.6686 -2.2225,0.6686l-1.9438 0 0 3.0797 -1.0019 0zm1.0019 -3.974l1.9596 0c0.6474,0 1.1078,-0.12 1.3794,-0.3616 0.2716,-0.2417 0.4075,-0.5803 0.4075,-1.0178 0,-0.3175 -0.0794,-0.5891 -0.2399,-0.8149 -0.1605,-0.2258 -0.3705,-0.3739 -0.6333,-0.4463 -0.1693,-0.0441 -0.4797,-0.067 -0.9348,-0.067l-1.9385 0 0 2.7076z" />
  <polygon
   id="1234567"
   class="fil10"
   points="104.065,252.056 104.065,244.48 105.067,244.48 105.067,252.056 " />
  <path
   id="12345678"
   class="fil10"
   d="M106.529 248.366c0,-1.2577 0.3369,-2.2419 1.0125,-2.9528 0.6756,-0.7108 1.5469,-1.0671 2.6158,-1.0671 0.6985,0 1.33,0.1675 1.8909,0.5009 0.5609,0.3351 0.9896,0.8008 1.2841,1.3988 0.2946,0.5962 0.441,1.2753 0.441,2.032 0,0.769 -0.1535,1.4569 -0.4639,2.0619 -0.3104,0.6068 -0.7497,1.0654 -1.3176,1.3776 -0.5698,0.3122 -1.1818,0.4675 -1.8398,0.4675 -0.7143,0 -1.3511,-0.1711 -1.912,-0.5169 -0.5627,-0.3439 -0.9878,-0.8149 -1.2771,-1.4111 -0.2892,-0.5944 -0.4339,-1.2259 -0.4339,-1.8908zm1.0337 0.0158c0,0.9137 0.2451,1.6316 0.7355,2.1573 0.4921,0.5256 1.1077,0.7884 1.8486,0.7884 0.7549,0 1.3758,-0.2646 1.8626,-0.7955 0.4868,-0.5309 0.732,-1.2841 0.732,-2.2595 0,-0.6156 -0.1058,-1.1536 -0.3139,-1.614 -0.2082,-0.4604 -0.5133,-0.8167 -0.9137,-1.0707 -0.4022,-0.2522 -0.852,-0.3792 -1.3512,-0.3792 -0.7108,0 -1.3211,0.2434 -1.8326,0.732 -0.5116,0.4868 -0.7673,1.3018 -0.7673,2.4412z" />
  <path
   id="123456789"
   class="fil10"
   d="M120.947 252.056l0 -7.5759 2.6088 0c0.5891,0 1.0389,0.0371 1.3493,0.1094 0.4339,0.0988 0.8044,0.2804 1.1113,0.5415 0.3986,0.3387 0.6985,0.769 0.896,1.2947 0.1994,0.5256 0.2981,1.1253 0.2981,1.8009 0,0.575 -0.067,1.0848 -0.2028,1.5293 -0.1341,0.4445 -0.3052,0.8131 -0.5168,1.1042 -0.2099,0.291 -0.4392,0.5203 -0.6897,0.6861 -0.2487,0.1676 -0.5503,0.2946 -0.9031,0.381 -0.3546,0.0865 -0.7603,0.1288 -1.2171,0.1288l-2.734 0zm1.0019 -0.8943l1.6174 0c0.4992,0 0.8926,-0.0458 1.1766,-0.1393 0.2839,-0.0935 0.5097,-0.224 0.679,-0.3934 0.2382,-0.2363 0.4234,-0.5574 0.5557,-0.9578 0.1323,-0.4021 0.1993,-0.8872 0.1993,-1.4605 0,-0.7919 -0.1305,-1.4005 -0.3898,-1.8256 -0.2611,-0.4268 -0.5768,-0.7108 -0.949,-0.8555 -0.2681,-0.104 -0.702,-0.1552 -1.2964,-0.1552l-1.5928 0 0 5.7873z" />
  <polygon
   id="12345678910"
   class="fil10"
   points="128.611,252.056 128.611,244.48 134.088,244.48 134.088,245.374 129.613,245.374 129.613,247.694 133.804,247.694 133.804,248.583 129.613,248.583 129.613,251.162 134.264,251.162 134.264,252.056 " />
  <polygon
   id="1234567891011"
   class="fil10"
   points="141.701,252.056 141.701,244.48 142.703,244.48 142.703,252.056 " />
  <polygon
   id="123456789101112"
   class="fil10"
   points="146.398,252.056 146.398,245.374 143.902,245.374 143.902,244.48 149.906,244.48 149.906,245.374 147.4,245.374 147.4,252.056 " />
  <path
   id="12345678910111213"
   class="fil10"
   d="M149.317 252.056l2.9104 -7.5759 1.0795 0 3.1009 7.5759 -1.143 0 -0.8837 -2.2948 -3.1679 0 -0.8308 2.2948 -1.0654 0zm2.1855 -3.1115l2.57 0 -0.792 -2.0972c-0.2399,-0.6368 -0.4198,-1.1607 -0.5362,-1.5717 -0.0971,0.4869 -0.2329,0.9684 -0.4093,1.4482l-0.8325 2.2207z" />
  <path
   id="1234567891011121314"
   class="fil10"
   d="M160.754 249.084l0 -0.8873 3.2085 -0.0053 0 2.8099c-0.4921,0.3933 -1.0001,0.6879 -1.524,0.8872 -0.5239,0.1976 -1.0619,0.2964 -1.6122,0.2964 -0.7444,0 -1.4217,-0.1588 -2.0285,-0.478 -0.6085,-0.3175 -1.0671,-0.7797 -1.3776,-1.3812 -0.3104,-0.6032 -0.4656,-1.277 -0.4656,-2.0214 0,-0.7373 0.1552,-1.4252 0.4639,-2.0637 0.3069,-0.6403 0.7514,-1.1148 1.3299,-1.4252 0.5786,-0.3087 1.2453,-0.4639 2.0003,-0.4639 0.5468,0 1.0424,0.0882 1.4852,0.2663 0.4427,0.1764 0.7902,0.4233 1.0407,0.7408 0.2522,0.3175 0.4427,0.7303 0.575,1.24l-0.9049 0.2488c-0.1146,-0.3863 -0.2557,-0.6897 -0.4233,-0.9102 -0.1693,-0.2205 -0.411,-0.3969 -0.725,-0.5292 -0.3122,-0.1323 -0.6614,-0.1993 -1.0424,-0.1993 -0.4586,0 -0.8555,0.0706 -1.1889,0.2099 -0.3351,0.1394 -0.6032,0.3228 -0.8096,0.5503 -0.2046,0.2276 -0.3634,0.4763 -0.478,0.7497 -0.1923,0.4674 -0.2893,0.9754 -0.2893,1.524 0,0.6756 0.1164,1.24 0.3493,1.6951 0.2328,0.4551 0.5715,0.792 1.016,1.0124 0.4445,0.2205 0.9154,0.3317 1.4146,0.3317 0.4357,0 0.859,-0.0847 1.2718,-0.2523 0.4145,-0.1658 0.7267,-0.3439 0.9401,-0.5344l0 -1.4111 -2.226 0z" />
  <path
   id="123456789101112131415"
   class="fil10"
   d="M170.411 244.48l1.0037 0 0 4.378c0,0.7602 -0.0865,1.3652 -0.2593,1.8133 -0.1729,0.448 -0.4833,0.8113 -0.9331,1.0918 -0.4498,0.2822 -1.039,0.4216 -1.7692,0.4216 -0.7091,0 -1.2912,-0.1217 -1.741,-0.3669 -0.4515,-0.2434 -0.7743,-0.598 -0.9666,-1.0619 -0.194,-0.4639 -0.2892,-1.0954 -0.2892,-1.8979l0 -4.378 1.0018 0 0 4.3727c0,0.6579 0.0618,1.143 0.1835,1.4534 0.1217,0.3122 0.3334,0.5521 0.6297,0.7215 0.2981,0.1693 0.6632,0.254 1.0936,0.254 0.7373,0 1.2629,-0.1676 1.5769,-0.5028 0.3122,-0.3333 0.4692,-0.9754 0.4692,-1.9261l0 -4.3727zm-3.4413 -0.4656l0 -1.0584 0.9719 0 0 1.0584 -0.9719 0zm1.9261 0l0 -1.0584 0.9719 0 0 1.0584 -0.9719 0z" />
  <path
   id="12345678910111213141516"
   class="fil10"
   d="M173.255 252.056l0 -7.5759 1.0019 0 0 7.5759 -1.0019 0zm-0.2593 -8.0415l0.6879 -1.4464 1.2188 0 -1.1359 1.4464 -0.7708 0z" />
  <g
   id="_61528600">
   <g
   id="g125">
    <path
   id="_61699216"
   class="fil8 str6"
   d="M24.4914 119.707l0.0755 -0.0204m0.2409 -0.0652c3.7311,-1.008 4.6378,-4.8635 2.8809,-7.9896 -1.8938,-2.3616 -3.7341,-2.4955 -6.6286,-2.1579 -2.9626,0.7193 -5.3108,2.1509 -7.003,4.7267 -4.8865,8.9886 3.3396,17.2775 12.4644,15.7948 13.7286,-2.5853 17.3359,-19.9924 6.3713,-28.4602 -10.1815,-7.0661 -21.5718,-2.2797 -27.4157,6.1853 -3.3559,4.8611 -4.7109,11.0695 -3.1321,16.8729 5.4633,19.0889 28.8213,21.5707 41.2886,8.2894 7.48,-8.133 7.712,-20.9874 4.0589,-30.8932 -2.2588,-5.7514 -5.1467,-11.2565 -7.7879,-16.838 -3.253,-7.1962 -6.2595,-16.5355 -0.2717,-23.2209 8.2388,-9.7234 25.1594,-4.7441 23.0186,8.8021 -1.0671,3.9148 -3.2872,6.5999 -7.0732,8.0801 -5.5159,1.5633 -11.1694,-0.6112 -11.3531,-6.9168 0.1596,-4.8834 5.6147,-9.0773 9.9893,-5.8068 2.1189,2.4476 0.7574,5.1226 -1.8799,6.3837" />
    <path
   id="_61649544"
   class="fil8 str6"
   d="M24.4693 162.94l0.0755 0.0204m0.2409 0.0652c3.7311,1.008 4.6378,4.8635 2.8809,7.9896 -1.8938,2.3616 -3.7341,2.4955 -6.6286,2.1579 -2.9626,-0.7193 -5.3108,-2.1509 -7.003,-4.7267 -4.8865,-8.9886 3.3396,-17.2775 12.4644,-15.7948 13.7286,2.5853 17.3359,19.9924 6.3713,28.4602 -10.1815,7.0661 -21.5718,2.2797 -27.4157,-6.1853 -3.3559,-4.8611 -4.7109,-11.0695 -3.1321,-16.8729 5.4633,-19.0889 28.8213,-21.5707 41.2886,-8.2894 7.48,8.133 7.712,20.9874 4.0589,30.8932 -2.2588,5.7514 -5.1467,11.2565 -7.7879,16.838 -3.253,7.1962 -6.2595,16.5355 -0.2717,23.2209 8.2388,9.7234 25.1594,4.7441 23.0186,-8.8021 -1.0671,-3.9148 -3.2872,-6.5999 -7.0732,-8.0801 -5.5159,-1.5633 -11.1694,0.6112 -11.3531,6.9168 0.1596,4.8834 5.6147,9.0773 9.9893,5.8068 2.1189,-2.4476 0.7574,-5.1226 -1.8799,-6.3837" />
   </g>
   <g
   id="g129">
    <path
   id="_61627688"
   class="fil8 str6"
   d="M208.803 119.707l-0.0755 -0.0204m-0.2409 -0.0652c-3.7311,-1.008 -4.6378,-4.8635 -2.8809,-7.9896 1.8938,-2.3616 3.7341,-2.4955 6.6286,-2.1579 2.9626,0.7193 5.3108,2.1509 7.003,4.7267 4.8865,8.9886 -3.3396,17.2775 -12.4644,15.7948 -13.7286,-2.5853 -17.3359,-19.9924 -6.3713,-28.4602 10.1815,-7.0661 21.5718,-2.2797 27.4157,6.1853 3.3559,4.8611 4.7109,11.0695 3.1321,16.8729 -5.4633,19.0889 -28.8213,21.5707 -41.2886,8.2894 -7.48,-8.133 -7.712,-20.9874 -4.0589,-30.8932 2.2588,-5.7514 5.1467,-11.2565 7.7879,-16.838 3.253,-7.1962 6.2595,-16.5355 0.2717,-23.2209 -8.2388,-9.7234 -25.1594,-4.7441 -23.0186,8.8021 1.0671,3.9148 3.2872,6.5999 7.0732,8.0801 5.5159,1.5633 11.1694,-0.6112 11.3531,-6.9168 -0.1596,-4.8834 -5.6147,-9.0773 -9.9893,-5.8068 -2.1189,2.4476 -0.7574,5.1226 1.8799,6.3837" />
    <path
   id="_61603752"
   class="fil8 str6"
   d="M208.825 162.94l-0.0755 0.0204m-0.2409 0.0652c-3.7311,1.008 -4.6378,4.8635 -2.8809,7.9896 1.8938,2.3616 3.7341,2.4955 6.6286,2.1579 2.9626,-0.7193 5.3108,-2.1509 7.003,-4.7267 4.8865,-8.9886 -3.3396,-17.2775 -12.4644,-15.7948 -13.7286,2.5853 -17.3359,19.9924 -6.3713,28.4602 10.1815,7.0661 21.5718,2.2797 27.4157,-6.1853 3.3559,-4.8611 4.7109,-11.0695 3.1321,-16.8729 -5.4633,-19.0889 -28.8213,-21.5707 -41.2886,-8.2894 -7.48,8.133 -7.712,20.9874 -4.0589,30.8932 2.2588,5.7514 5.1467,11.2565 7.7879,16.838 3.253,7.1962 6.2595,16.5355 0.2717,23.2209 -8.2388,9.7234 -25.1594,4.7441 -23.0186,-8.8021 1.0671,-3.9148 3.2872,-6.5999 7.0732,-8.0801 5.5159,-1.5633 11.1694,0.6112 11.3531,6.9168 -0.1596,4.8834 -5.6147,9.0773 -9.9893,5.8068 -2.1189,-2.4476 -0.7574,-5.1226 1.8799,-6.3837" />
   </g>
  </g>
  <polyline
   class="fil8 str4"
   points="143.545,185.752 147.675,188.849 151.51,191.062 156.083,192.979 161.245,196.962 168.473,200.059 "
   id="polyline133" />
  <polyline
   class="fil8 str7"
   points="94.6376,70.9572 89.7598,70.9572 86.1827,70.3068 82.9309,68.6809 80.3338,67.047 78.0376,66.3409 "
   id="polyline135" />
  <path
   class="fil8 str7"
   d="M131.709 36.8126c-1.424,1.5336 -2.1208,3.0774 -2.9267,4.8778 -0.3596,0.8028 -0.1626,2.4332 -0.1626,3.4145"
   id="path137" />
  <path
   class="fil8 str8"
   d="M112.819 20.0421c2.2153,0 4.272,0.0977 6.4776,-0.1223 0.5488,-0.0544 1.113,-0.0407 1.6701,-0.0407"
   id="path139" />
  <path
   class="fil8 str8"
   d="M113.675 17.5909c2.2736,0 4.7541,0.3791 6.9252,-0.1635"
   id="path141" />
  <path
   class="fil8 str8"
   d="M108.624 18.5717c-0.8214,-0.117 8.3253,0.726 15.8877,-0.368"
   id="path143" />
  <polyline
   class="fil8 str2"
   points="134.305,39.8833 135.506,39.6832 136.171,39.5056 136.688,39.111 137.052,38.3661 137.339,37.4767 137.493,36.7729 137.62,35.7098 137.577,35.0374 137.426,34.4126 136.992,33.7715 136.484,33.1053 135.092,31.3508 "
   id="polyline145" />
  <polyline
   class="fil8 str2"
   points="116.666,41.0317 115.633,41.1178 114.76,41.3197 113.975,41.6158 113.065,42.0488 112.323,42.4482 111.094,43.1988 112.085,43.8099 113.271,44.504 114.407,45.199 114.72,45.3664 115.059,45.4849 115.476,45.5352 115.996,45.5666 116.666,45.6002 "
   id="polyline147" />
  <polyline
   class="fil8 str2"
   points="116.666,41.0317 117.699,41.1178 118.572,41.3197 119.357,41.6158 120.268,42.0488 121.009,42.4482 122.239,43.1988 121.248,43.8099 120.061,44.504 118.926,45.199 118.613,45.3664 118.274,45.4849 117.857,45.5352 117.337,45.5666 116.666,45.6002 "
   id="polyline149" />
  <polyline
   class="fil8 str2"
   points="112.001,43.2068 113.299,43.1538 114.541,43.1007 115.416,43.0694 116.666,43.0539 "
   id="polyline151" />
  <polyline
   class="fil8 str2"
   points="121.503,43.1966 119.954,43.1365 118.792,43.1007 117.916,43.0694 116.666,43.0539 "
   id="polyline153" />
  <polyline
   class="fil8 str2"
   points="114.561,29.5375 113.982,32.0453 113.549,33.438 112.958,34.9304 112.642,35.7633 112.617,36.0902 112.655,36.4146 112.754,36.7013 112.938,36.9461 113.227,37.1268 113.531,37.2523 114.402,37.4617 115.456,37.6199 116.666,37.6808 "
   id="polyline155" />
  <path
   class="fil8 str7"
   d="M111.718 33.3916c-0.4129,0.7678 -1.0902,1.5315 -1.7597,2.1077 -0.2476,0.2128 -0.9444,0.9725 -1.1731,1.0295"
   id="path157" />
  <polyline
   class="fil8 str2"
   points="118.771,29.5375 119.35,32.0453 119.784,33.438 120.375,34.9304 120.691,35.7633 120.716,36.0902 120.678,36.4146 120.579,36.7013 120.395,36.9461 120.106,37.1268 119.802,37.2523 118.931,37.4617 117.877,37.6199 116.666,37.6808 "
   id="polyline159" />
  <polyline
   class="fil8 str2"
   points="102.946,64.9346 102.946,60.0316 102.946,56.5999 102.864,48.1018 "
   id="polyline161" />
  <polyline
   class="fil8 str7"
   points="107.753,58.1525 108.079,61.2573 108.894,64.7711 "
   id="polyline163" />
  <line
   class="fil8 str7"
   x1="101.235"
   y1="72.8606"
   x2="109.464"
   y2="77.2731"
   id="line165" />
  <line
   class="fil8 str7"
   x1="101.235"
   y1="77.1914"
   x2="107.59"
   y2="80.0513"
   id="line167" />
  <line
   class="fil8 str7"
   x1="112.56"
   y1="71.9619"
   x2="114.901"
   y2="75.7329"
   id="line169" />
  <polyline
   class="fil8 str7"
   points="138.695,70.9572 143.572,70.9572 147.149,70.3068 150.401,68.6809 153.012,67.0143 155.303,66.3445 "
   id="polyline171" />
  <polyline
   class="fil8 str2"
   points="172.429,79.8879 172.103,76.5379 171.207,73.678 169.414,70.818 167.133,68.775 165.096,67.4676 162.489,66.4872 159.882,66.0785 157.519,66.0785 155.319,66.3237 "
   id="polyline173" />
  <polyline
   class="fil8 str2"
   points="155.319,66.3237 153.037,65.9968 150.593,65.5063 147.334,65.0981 144.645,64.6076 141.875,63.1368 139.186,61.5842 136.334,60.3586 133.564,59.3782 130.386,58.4764 "
   id="polyline175" />
  <polyline
   class="fil8 str2"
   points="130.386,64.9346 130.386,60.0316 130.386,56.5999 130.468,48.1018 "
   id="polyline177" />
  <polyline
   class="fil8 str7"
   points="125.579,58.1525 125.253,61.2573 124.439,64.7711 "
   id="polyline179" />
  <line
   class="fil8 str7"
   x1="132.097"
   y1="72.8606"
   x2="123.868"
   y2="77.2731"
   id="line181" />
  <line
   class="fil8 str7"
   x1="132.097"
   y1="77.1914"
   x2="125.742"
   y2="80.0513"
   id="line183" />
  <line
   class="fil8 str7"
   x1="120.772"
   y1="71.9619"
   x2="118.431"
   y2="75.7329"
   id="line185" />
  <polyline
   class="fil8 str2"
   points="101.649,14.7 101.467,18.6022 100.654,21.3663 98.7024,25.1059 95.2879,32.0974 "
   id="polyline187" />
  <polyline
   class="fil8 str2"
   points="95.9383,14.7 94.9628,19.903 94.1498,25.1059 93.1742,30.1463 92.4359,33.8396 92.0568,36.6907 91.7343,40.2249 91.6097,43.8695 91.6954,47.9286 96.5092,48.3201 102.875,49.1693 "
   id="polyline189" />
  <polyline
   class="fil8 str2"
   points="98.7024,25.1059 98.2199,29.5529 98.261,33.1486 98.5866,37.8465 99.1977,40.6658 100.005,43.0946 100.95,45.4159 101.801,46.7829 102.864,48.1018 104.792,49.6937 107.264,51.5132 110.034,53.9035 111.276,54.9899 111.914,55.4357 112.727,55.6854 113.946,55.8643 116.666,55.8541 "
   id="polyline191" />
  <polyline
   class="fil8 str2"
   points="99.028,39.8833 97.8262,39.6832 97.1617,39.5056 96.6448,39.111 96.2807,38.3661 95.9931,37.4767 95.8398,36.7729 95.713,35.7098 95.7554,35.0374 95.9065,34.4126 96.3408,33.7715 96.8485,33.1053 98.2407,31.3508 "
   id="polyline193" />
  <line
   class="fil8 str2"
   x1="95.9383"
   y1="14.7"
   x2="116.666"
   y2="14.7"
   id="line195" />
  <line
   class="fil8 str2"
   x1="95.9383"
   y1="9.2063"
   x2="116.666"
   y2="9.2063"
   id="line197" />
  <line
   class="fil8 str2"
   x1="95.9383"
   y1="9.2063"
   x2="95.9383"
   y2="14.7"
   id="line199" />
  <polyline
   class="fil8 str2"
   points="97.7313,9.2063 99.1164,7.6541 101.153,5.8767 103.141,4.5309 104.932,3.5774 106.913,2.7918 108.851,2.2731 111.079,1.8953 113.459,1.6691 116.666,1.6073 "
   id="polyline201" />
  <polyline
   class="fil8 str2"
   points="131.683,14.7 131.866,18.6022 132.679,21.3663 134.63,25.1059 138.045,32.0974 "
   id="polyline203" />
  <polyline
   class="fil8 str2"
   points="137.394,14.7 138.37,19.903 139.183,25.1059 140.158,30.1463 140.897,33.8396 141.276,36.6907 141.598,40.2249 141.723,43.8695 141.637,47.9286 136.823,48.3201 130.458,49.1693 "
   id="polyline205" />
  <polyline
   class="fil8 str2"
   points="134.63,25.1059 135.113,29.5529 135.072,33.1486 134.746,37.8465 134.135,40.6658 133.328,43.0946 132.383,45.4159 131.532,46.7829 130.468,48.1018 128.54,49.6937 126.068,51.5132 123.298,53.9035 122.057,54.9899 121.419,55.4357 120.605,55.6854 119.387,55.8643 116.666,55.8541 "
   id="polyline207" />
  <line
   class="fil8 str2"
   x1="137.394"
   y1="14.7"
   x2="116.666"
   y2="14.7"
   id="line209" />
  <line
   class="fil8 str2"
   x1="137.394"
   y1="9.2063"
   x2="116.666"
   y2="9.2063"
   id="line211" />
  <line
   class="fil8 str2"
   x1="137.394"
   y1="9.2063"
   x2="137.394"
   y2="14.7"
   id="line213" />
  <polyline
   class="fil8 str2"
   points="135.601,9.2063 134.216,7.6541 132.179,5.8767 130.192,4.5309 128.401,3.5774 126.42,2.7918 124.481,2.2731 122.254,1.8953 119.874,1.6691 116.666,1.6073 "
   id="polyline215" />
  <polyline
   class="fil8 str7"
   points="112.533,50.3878 113.908,50.071 115.303,49.8568 116.666,49.7878 "
   id="polyline217" />
  <polyline
   class="fil8 str7"
   points="120.8,50.3878 119.425,50.071 118.029,49.8568 116.666,49.7878 "
   id="polyline219" />
  <path
   class="fil8 str7"
   d="M101.624 36.8126c1.424,1.5336 2.1207,3.0774 2.9266,4.8778 0.3597,0.8028 0.1626,2.4332 0.1626,3.4145"
   id="path221" />
  <path
   id="polygon137"
   class="fil11 str2"
   d="M103.445 28.897c2.5781,0.965 5.266,1.1833 8.174,-0.0946 -3.6924,-2.9356 -5.8884,-1.7708 -8.174,0.0946z"
   sodipodi:nodetypes="ccc" />
  <ellipse
   id="ellipse135"
   class="fil4 str2"
   cx="107.607"
   cy="28.3449"
   rx="0.9004"
   ry="0.8991"
   sodipodi:cx="107.532"
   sodipodi:cy="28.6425"
   sodipodi:rx="0.90039098"
   sodipodi:ry="0.89909297" />
  <line
   id="line225"
   class="fil8 str9"
   x1="112.087"
   y1="25.7308"
   x2="103.26"
   y2="25.3622"
   sodipodi:nodetypes="cc" />
  <path
   class="fil8 str0"
   d="M135.73 38.4372c0.5951,-0.976 0.9525,-2.1879 0.9525,-3.2889 0,-0.3871 -0.0141,-0.7273 -0.0141,-1.1161"
   id="path227" />
  <path
   class="fil8 str7"
   d="M121.614 33.3916c0.4129,0.7678 1.0902,1.5315 1.7597,2.1077 0.2476,0.2128 0.9444,0.9725 1.1731,1.0295"
   id="path229" />
  <path
   id="polygon137_8"
   class="fil11 str2"
   d="M129.887 28.897c-2.5781,0.965 -5.266,1.1833 -8.174,-0.0946 3.6924,-2.9356 5.8884,-1.7708 8.174,0.0946z"
   sodipodi:nodetypes="ccc" />
  <ellipse
   id="ellipse135_9"
   class="fil4 str2"
   cx="125.726"
   cy="28.3449"
   rx="0.9004"
   ry="0.8991"
   sodipodi:cx="107.532"
   sodipodi:cy="28.6425"
   sodipodi:rx="0.90039098"
   sodipodi:ry="0.89909297" />
  <line
   id="polyline219_10"
   class="fil8 str9"
   x1="121.246"
   y1="25.7308"
   x2="130.072"
   y2="25.3622"
   sodipodi:nodetypes="cc" />
  <polyline
   class="fil8 str2"
   points="78.0133,66.3237 80.2949,65.9968 82.7391,65.5063 85.9985,65.0981 88.687,64.6076 91.4573,63.1368 94.1463,61.5842 96.9978,60.3586 99.7681,59.3782 102.946,58.4764 "
   id="polyline234" />
  <g
   id="_39765888">
   <line
   id="_69003096"
   class="fil8 str8"
   x1="113.95"
   y1="9.2063"
   x2="119.383"
   y2="14.7" />
   <line
   id="_68720856"
   class="fil8 str8"
   x1="113.95"
   y1="14.7001"
   x2="119.383"
   y2="9.2064" />
   <line
   id="_68769616"
   class="fil8 str8"
   x1="119.383"
   y1="9.2064"
   x2="124.817"
   y2="14.7001" />
   <line
   id="_72727320"
   class="fil8 str8"
   x1="119.383"
   y1="14.7002"
   x2="124.817"
   y2="9.2065" />
   <line
   id="_39776880"
   class="fil8 str8"
   x1="124.817"
   y1="9.2065"
   x2="130.251"
   y2="14.7002" />
   <line
   id="_67302360"
   class="fil8 str8"
   x1="124.817"
   y1="14.7003"
   x2="130.251"
   y2="9.2066" />
   <line
   id="_68726096"
   class="fil8 str8"
   x1="130.251"
   y1="9.2066"
   x2="135.684"
   y2="14.7003" />
   <line
   id="_72562712"
   class="fil8 str8"
   x1="130.251"
   y1="14.7004"
   x2="135.684"
   y2="9.2067" />
   <line
   id="_68732968"
   class="fil8 str8"
   x1="135.684"
   y1="9.2067"
   x2="137.394"
   y2="10.9355" />
   <line
   id="_72563496"
   class="fil8 str8"
   x1="135.684"
   y1="14.7005"
   x2="137.394"
   y2="12.9718" />
   <line
   id="_68816000"
   class="fil8 str8"
   x1="113.95"
   y1="9.2063"
   x2="108.516"
   y2="14.7" />
   <line
   id="_72551288"
   class="fil8 str8"
   x1="113.95"
   y1="14.7001"
   x2="108.516"
   y2="9.2064" />
   <line
   id="_72567504"
   class="fil8 str8"
   x1="108.516"
   y1="9.2064"
   x2="103.082"
   y2="14.7001" />
   <line
   id="_39263216"
   class="fil8 str8"
   x1="108.516"
   y1="14.7002"
   x2="103.082"
   y2="9.2065" />
   <line
   id="_72568528"
   class="fil8 str8"
   x1="103.082"
   y1="9.2065"
   x2="97.6484"
   y2="14.7002" />
   <line
   id="_70357160"
   class="fil8 str8"
   x1="103.082"
   y1="14.7003"
   x2="97.6484"
   y2="9.2066" />
   <line
   id="_72552856"
   class="fil8 str8"
   x1="97.6484"
   y1="9.2066"
   x2="95.9385"
   y2="10.9354" />
   <line
   id="_69001296"
   class="fil8 str8"
   x1="97.6484"
   y1="14.7004"
   x2="95.9385"
   y2="12.9717" />
  </g>
 </g>
 <g
   id="Contorno">
  <metadata
   id="CorelCorpID_2Corel-Layer" />
  <line
   class="fil8 str2"
   x1="50.6803"
   y1="156.946"
   x2="116.647"
   y2="156.946"
   id="line257" />
  <g
   id="Contorno_11">
   <line
   id="line433"
   class="fil8 str10"
   x1="50.6802"
   y1="79.8877"
   x2="50.6802"
   y2="172.252" />
   <line
   id="line435"
   class="fil8 str10"
   x1="116.647"
   y1="79.8877"
   x2="182.614"
   y2="79.8877" />
   <line
   id="line437"
   class="fil8 str10"
   x1="116.647"
   y1="79.8877"
   x2="50.6802"
   y2="79.8877" />
   <line
   id="line439"
   class="fil8 str10"
   x1="182.614"
   y1="79.8877"
   x2="182.614"
   y2="172.252" />
   <path
   id="path441"
   class="fil8 str10"
   d="M50.6802 172.252c0,36.4327 29.5345,65.9671 65.9671,65.9671 36.4323,0.0002 65.9669,-29.5342 65.9671,-65.9667" />
  </g>
  <line
   class="fil8 str2"
   x1="116.647"
   y1="79.8877"
   x2="116.647"
   y2="156.946"
   id="line265" />
  <line
   class="fil8 str2"
   x1="116.647"
   y1="156.946"
   x2="182.614"
   y2="156.946"
   id="line267" />
  <g
   id="_69004200">
   <path
   id="path3570"
   class="fil12 str4"
   d="M148.568 130.426c-0.0231,-0.0391 -0.2014,-0.5824 -0.3962,-1.2072 -0.3445,-1.1051 -0.3525,-1.1639 -0.2937,-2.1491 0.0333,-0.5571 0.0855,-1.1376 0.116,-1.2901l0.0554 -0.2771 -1.6901 -0.3243 -1.69 -0.3243 -0.1132 0.3361c-0.0623,0.1849 -0.2222,0.701 -0.3554,1.147 -0.219,0.7331 -0.3201,0.9054 -1.0553,1.7989 -0.4471,0.5435 -0.8287,1.0042 -0.8479,1.0238 -0.0192,0.0195 -0.484,-0.1489 -1.0329,-0.3743 -1.1558,-0.4747 -1.0728,-0.275 -0.8628,-2.0757 0.1216,-1.0426 0.1495,-1.1299 0.6586,-2.0566 0.2924,-0.5323 0.5309,-1.0009 0.5299,-1.0415 -0.0015,-0.0601 -1.1991,-0.8835 -2.5513,-1.754l-0.2569 -0.1653 -0.808 0.9701c-0.791,0.9496 -0.8321,0.9827 -1.939,1.5575l-1.1309 0.5874 -0.7719 -0.7767 -0.7719 -0.7768 0.5995 -1.1361c0.5778,-1.0951 0.6335,-1.1648 1.5358,-1.9248 0.5149,-0.4337 0.9249,-0.83 0.911,-0.8808 -0.0215,-0.0782 -1.6757,-2.5977 -1.7938,-2.732 -0.0223,-0.0254 -0.5381,0.214 -1.1464,0.532l-1.1058 0.5782 -1.2618 0.1156c-0.6939,0.0635 -1.275,0.101 -1.2912,0.0833 -0.0162,-0.0177 -0.2111,-0.4716 -0.4331,-1.0087 -0.3431,-0.8302 -0.3837,-0.995 -0.271,-1.0992 0.0729,-0.0674 0.5258,-0.4461 1.0063,-0.8413 0.8975,-0.7383 1.0178,-0.793 2.9846,-1.3563 0.2186,-0.0626 0.2155,-0.1043 -0.1409,-1.9085l-0.3064 -1.5517 -0.3394 0.0542c-0.1867,0.0299 -0.7624,0.08 -1.2794,0.1115 -0.9042,0.055 -0.9853,0.0432 -2.1236,-0.3106l-1.1835 -0.3679 -0.0265 -1.0914 -0.0266 -1.0913 1.3091 -0.3986c1.3086,-0.3985 1.3093,-0.3985 2.1568,-0.3014 0.4663,0.0533 1.0018,0.0974 1.19,0.0978l0.3422 0.0008 0.3088 -1.5574c0.1699,-0.8567 0.2875,-1.6135 0.2612,-1.6819 -0.0262,-0.0684 -0.5313,-0.2661 -1.1225,-0.4393 -1.0268,-0.3009 -1.1144,-0.3475 -1.9597,-1.0403 -0.4866,-0.3989 -0.9523,-0.7776 -1.0349,-0.8415 -0.1343,-0.104 -0.1061,-0.226 0.2675,-1.1551 0.3574,-0.8891 0.4449,-1.0334 0.6069,-1.0009 0.1042,0.0208 0.7007,0.0866 1.3256,0.1462 1.1239,0.1072 1.1476,0.1145 2.1963,0.6727l1.0602 0.5643 0.9505 -1.4212 0.9505 -1.4212 -0.9692 -0.8033c-0.949,-0.7866 -0.9813,-0.8266 -1.5549,-1.9296l-0.5856 -1.1264 0.7845 -0.7805 0.7844 -0.7804 1.0776 0.5787c1.2042,0.6468 1.3399,0.7588 2.1321,1.7597 0.3508,0.4432 0.6138,0.6935 0.7068,0.6723 0.1823,-0.0416 2.7397,-1.7459 2.7397,-1.8259 0,-0.0317 -0.251,-0.5316 -0.5577,-1.1108l-0.5577 -1.0533 -0.1136 -1.2618c-0.0624,-0.694 -0.0883,-1.287 -0.0574,-1.3179 0.0889,-0.0889 1.7758,-0.7815 1.9035,-0.7815 0.0633,0 0.4809,0.444 0.9279,0.9867 0.7923,0.9617 0.8214,1.0148 1.1505,2.1004 0.1856,0.6126 0.3571,1.1333 0.381,1.1572 0.0239,0.0239 0.7794,-0.1035 1.679,-0.283 1.5943,-0.3182 1.6351,-0.3323 1.6204,-0.5579 -0.0083,-0.1273 -0.0465,-0.6927 -0.0849,-1.2564 -0.0687,-1.0083 -0.064,-1.0446 0.2951,-2.2487l0.365 -1.2238 1.1007 0 1.1007 0 0.3928 1.3019 0.3928 1.3018 -0.1219 1.1627c-0.12,1.1447 -0.1188,1.1634 0.0728,1.2084 0.3895,0.0916 3.0193,0.6114 3.0931,0.6114 0.0417,0 0.2072,-0.4367 0.3678,-0.9705 0.3999,-1.3294 0.3656,-1.2657 1.2799,-2.3738l0.8154 -0.9882 0.9645 0.4061c0.7802,0.3286 0.9706,0.4473 0.9969,0.622 0.018,0.1187 -0.0172,0.7084 -0.0781,1.3104 -0.1077,1.0643 -0.1263,1.1243 -0.6756,2.1748 -0.3105,0.5941 -0.531,1.1106 -0.4899,1.1477 0.2494,0.2247 2.7045,1.8024 2.767,1.7782 0.0418,-0.0163 0.4118,-0.431 0.8223,-0.9216 0.7125,-0.8517 0.7974,-0.9191 1.8791,-1.4926l1.1327 -0.6006 0.7813 0.7772 0.7812 0.7771 -0.5885 1.1303c-0.5714,1.0976 -0.6152,1.1524 -1.5116,1.8949 -0.5078,0.4205 -0.9232,0.7994 -0.9232,0.8422 0,0.0686 1.6287,2.565 1.793,2.7482 0.0355,0.0395 0.4944,-0.1587 1.02,-0.4404 0.5255,-0.2817 1.0402,-0.5391 1.1436,-0.5719 0.1034,-0.0328 0.7416,-0.1137 1.4181,-0.1797l1.2302 -0.1201 0.3991 0.9719c0.2195,0.5346 0.3844,1.0104 0.3665,1.0575 -0.018,0.0471 -0.4727,0.4476 -1.0105,0.8901 -0.9467,0.7788 -1.0113,0.8142 -2.0356,1.1171 -0.5819,0.1719 -1.0957,0.3454 -1.1419,0.3855 -0.0479,0.0415 0.0525,0.7679 0.2332,1.6883l0.3172 1.6155 0.315 0c0.1732,0 0.7139,-0.0445 1.2015,-0.0989l0.8866 -0.0988 1.2471 0.3829c0.6859,0.2106 1.2665,0.3829 1.2903,0.3829 0.0239,0 0.0313,0.4985 0.0166,1.1078l-0.0266 1.1078 -1.1362 0.3647c-1.1205,0.3598 -1.1505,0.3639 -2.1777,0.3022 -0.5728,-0.0344 -1.1668,-0.0686 -1.32,-0.076l-0.2784 -0.0134 -0.3088 1.5149c-0.1698,0.8332 -0.3108,1.5815 -0.3133,1.663 -0.0033,0.1079 0.309,0.245 1.1488,0.5045 1.1287,0.3487 1.1739,0.3735 2.1303,1.1672 0.5374,0.446 0.9771,0.8501 0.9771,0.8981 0,0.048 -0.1757,0.5106 -0.3905,1.028 -0.4498,1.0839 -0.2549,1.004 -1.9766,0.8097 -1.041,-0.1176 -1.1327,-0.1465 -2.0909,-0.6587 -0.5512,-0.2946 -1.0298,-0.5357 -1.0636,-0.5357 -0.0825,0 -1.7868,2.5521 -1.8296,2.7397 -0.0212,0.093 0.2291,0.3561 0.6722,0.7068 1.0053,0.7956 1.1219,0.9374 1.7599,2.1402l0.5722 1.0786 -0.7854 0.7793 -0.7853 0.7793 -1.158 -0.6228c-1.1241,-0.6046 -1.1804,-0.6501 -1.923,-1.5576 -0.4834,-0.5906 -0.8065,-0.9099 -0.8777,-0.8672 -0.0619,0.0372 -0.7001,0.4683 -1.418,0.958l-1.3055 0.8904 0.5629 1.0625c0.5415,1.0222 0.5669,1.1016 0.6663,2.0903 0.1761,1.7498 0.2591,1.5613 -0.8942,2.0334 -0.8864,0.3629 -1.0104,0.3918 -1.1124,0.2601 -0.0632,-0.0815 -0.4402,-0.5455 -0.8379,-1.0311 -0.7403,-0.9042 -0.8124,-1.0635 -1.3684,-3.0234 -0.0383,-0.1353 -0.2188,-0.1169 -1.6269,0.1659 -0.8712,0.175 -1.6292,0.3349 -1.6845,0.3554 -0.0704,0.0262 -0.0645,0.3886 0.0197,1.207l0.1203 1.1696 -0.3925 1.3019 -0.3925 1.3019 -1.0655 0c-0.586,0 -1.0844,-0.032 -1.1073,-0.071l0 0zm-0.7272 -12.498l-0.0004 -4.0476 -0.7257 -0.3726c-0.9508,-0.4881 -1.9339,-1.4597 -2.4275,-2.399l-0.3595 -0.6843 -4.1112 0 -4.1111 0 0.0579 0.3077c0.1909,1.0158 0.7644,2.7133 1.2556,3.7162 1.7934,3.6619 4.9831,6.2607 8.9547,7.2959 0.4687,0.1221 0.9906,0.2241 1.1599,0.2267l0.3077 0.0047 -0.0004 -4.0477zm5.8468 3.5859c1.8795,-0.6172 3.2869,-1.4035 4.8052,-2.6846 2.2722,-1.9171 3.8371,-4.5179 4.5013,-7.4806 0.102,-0.4552 0.1855,-0.8492 0.1855,-0.8759 0,-0.0265 -1.8428,-0.0479 -4.095,-0.0475l-4.095 0.0008 -0.3313 0.6362c-0.422,0.8099 -1.5328,1.939 -2.3908,2.43l-0.6391 0.3657 0.0006 3.6564c0.0003,2.2425 0.0386,3.7938 0.0991,4.0115 0.0925,0.3332 0.1214,0.355 0.4701,0.355 0.2043,0 0.8745,-0.1652 1.4894,-0.367l0 0zm-9.0627 -15.5304c0.5715,-1.0725 1.4466,-1.9294 2.5772,-2.5238l0.6391 -0.336 0 -4.0661c0,-2.458 -0.035,-4.0662 -0.0885,-4.0662 -0.2874,0 -1.6146,0.3387 -2.4679,0.6297 -4.0059,1.3663 -7.1302,4.4861 -8.532,8.5201 -0.283,0.8143 -0.5524,1.8982 -0.5558,2.2357 -0.0015,0.1552 0.2545,0.1657 4.0641,0.1657l4.0657 0 0.2981 -0.5591zm18.4143 0.0146c-0.092,-0.7418 -0.7004,-2.5627 -1.1653,-3.4872 -1.8416,-3.6629 -5.5685,-6.5845 -9.346,-7.3262 -0.3125,-0.0614 -0.6426,-0.1329 -0.7338,-0.1588 -0.156,-0.0444 -0.1657,0.1941 -0.1657,4.0722l0 4.1195 0.5484 0.2923c1.0769,0.574 1.9831,1.4773 2.4908,2.4831l0.2774 0.5496 4.0809 0 4.0808 0 -0.0675 -0.5445z" />
   <path
   id="_69004624"
   class="fil0 str4"
   d="M163.546 108.531c0,-7.684 -6.2315,-13.9155 -13.9155,-13.9155 -7.6839,0 -13.9155,6.2315 -13.9155,13.9155 0,7.684 6.2316,13.9155 13.9155,13.9155 7.684,0 13.9155,-6.2315 13.9155,-13.9155z" />
   <path
   id="_69004448"
   class="fil0 str4"
   d="M155.906 108.531c0,-3.465 -2.81,-6.275 -6.275,-6.275 -3.465,0 -6.275,2.81 -6.275,6.275 0,3.465 2.81,6.275 6.275,6.275 3.465,0 6.275,-2.81 6.275,-6.275z" />
   <path
   id="_69004256"
   class="fil2 str4"
   d="M153.406 108.531c0,-2.0845 -1.6905,-3.775 -3.775,-3.775 -2.0845,0 -3.775,1.6905 -3.775,3.775 0,2.0845 1.6905,3.775 3.775,3.775 2.0845,0 3.775,-1.6905 3.775,-3.775z" />
  </g>
 </g>
</svg>